<?xml version="1.0" encoding="utf-8"?>
<!-- Generator: Adobe Illustrator 16.0.0, SVG Export Plug-In . SVG Version: 6.00 Build 0)  -->
<!DOCTYPE svg PUBLIC "-//W3C//DTD SVG 1.1//EN" "http://www.w3.org/Graphics/SVG/1.1/DTD/svg11.dtd">
<svg version="1.1" id="Layer_1" xmlns="http://www.w3.org/2000/svg" xmlns:xlink="http://www.w3.org/1999/xlink" x="0px" y="0px"
	 width="56px" height="54px" viewBox="15 15 56 54" enable-background="new 15 15 56 54" xml:space="preserve">
<g>
	<path fill="#FF976E" d="M24.991,23.979c-0.048,2.845-2.415,4.208-4.814,4.208c-0.413,0-2.367-0.196-3.502-1.281
		c0.394-0.395,1.183-1.183,2.35-2.385c0.249,0.249,0.626,0.413,1.268,0.413c0.838,0,1.462-0.526,1.462-1.43v-7.646h3.237V23.979z"/>
	<path fill="#FF976E" d="M18.879,38.844v4.39h3.912v-4.39h3.237v12.33h-3.237v-4.701h-3.912v4.701h-3.238v-12.33H18.879z"/>
	<path fill="#FF976E" d="M45.425,46.637v4.538h-3.206v-4.538l-4.505-7.792h3.73l2.368,4.107l2.385-4.107h3.731L45.425,46.637z"/>
	<path fill="#FF976E" d="M62.979,55.811h7.662v2.68h-4.423v2.009h3.913v2.727h-3.913v2.271h4.423v2.648h-7.662V55.811z"/>
	<path fill="#FF976E" d="M65.19,15.859h3.238v12.329H65.19V15.859z"/>
</g>
</svg>
