<?xml version="1.0" encoding="utf-8"?>
<!-- Generator: Adobe Illustrator 16.0.0, SVG Export Plug-In . SVG Version: 6.00 Build 0)  -->
<!DOCTYPE svg PUBLIC "-//W3C//DTD SVG 1.1//EN" "http://www.w3.org/Graphics/SVG/1.1/DTD/svg11.dtd">
<svg version="1.1" id="Layer_1" xmlns="http://www.w3.org/2000/svg" xmlns:xlink="http://www.w3.org/1999/xlink" x="0px" y="0px"
	 width="86px" height="84px" viewBox="0 0 86 84" enable-background="new 0 0 86 84" xml:space="preserve">
<g>
	<path fill="#FF976E" d="M17.261,16.442c-0.068,4.035-3.425,5.968-6.828,5.968c-0.585,0-3.357-0.279-4.966-1.817
		c0.558-0.561,1.678-1.678,3.332-3.383c0.352,0.353,0.888,0.585,1.797,0.585c1.188,0,2.075-0.746,2.075-2.028V4.925h4.59V16.442z"/>
	<path fill="#FF976E" d="M8.593,37.524v6.226h5.547v-6.226h4.592V55.01H14.14v-6.668H8.593v6.668H4V37.524H8.593z"/>
	<path fill="#FF976E" d="M46.24,48.574v6.437h-4.547v-6.437l-6.39-11.05h5.291l3.356,5.826l3.384-5.826h5.291L46.24,48.574z"/>
	<path fill="#FF976E" d="M71.134,61.586H82v3.8h-6.271v2.849h5.549v3.867h-5.549v3.219H82v3.756H71.134V61.586z"/>
	<path fill="#FF976E" d="M74.271,4.927h4.592v17.485h-4.592V4.927z"/>
</g>
</svg>
