<?xml version="1.0" encoding="utf-8"?>
<!-- Generator: Adobe Illustrator 16.0.0, SVG Export Plug-In . SVG Version: 6.00 Build 0)  -->
<!DOCTYPE svg PUBLIC "-//W3C//DTD SVG 1.1//EN" "http://www.w3.org/Graphics/SVG/1.1/DTD/svg11.dtd">
<svg version="1.1" id="Layer_1" xmlns="http://www.w3.org/2000/svg" xmlns:xlink="http://www.w3.org/1999/xlink" x="0px" y="0px"
	 width="16px" height="14px" viewBox="0 0 16 14" enable-background="new 0 0 16 14" xml:space="preserve">
<g>
	<path fill="#FFFFFF" d="M16,1.477c0,0.631-0.514,1.143-1.143,1.143H1.143C0.512,2.62,0,2.108,0,1.477l0,0
		c0-0.631,0.512-1.143,1.143-1.143h13.715C15.486,0.334,16,0.846,16,1.477L16,1.477z"/>
	<path fill="#FFFFFF" d="M16,12.523c0,0.631-0.514,1.143-1.143,1.143H1.143C0.512,13.666,0,13.154,0,12.523l0,0
		c0-0.631,0.512-1.145,1.143-1.145h13.715C15.486,11.381,16,11.895,16,12.523L16,12.523z"/>
	<path fill="#FFFFFF" d="M16,7c0,0.631-0.514,1.145-1.143,1.145H1.143C0.512,8.145,0,7.631,0,7l0,0c0-0.63,0.512-1.143,1.143-1.143
		h13.715C15.486,5.857,16,6.37,16,7L16,7z"/>
</g>
</svg>
