<?xml version="1.0" encoding="utf-8"?>
<!-- Generator: Adobe Illustrator 16.0.0, SVG Export Plug-In . SVG Version: 6.00 Build 0)  -->
<!DOCTYPE svg PUBLIC "-//W3C//DTD SVG 1.1//EN" "http://www.w3.org/Graphics/SVG/1.1/DTD/svg11.dtd">
<svg class="j-menu-svg" version="1.1" id="Layer_1" xmlns="http://www.w3.org/2000/svg" xmlns:xlink="http://www.w3.org/1999/xlink" x="0px" y="0px"
	 width="24px" height="20px" viewBox="0 0 24 20" enable-background="new 0 0 24 20" xml:space="preserve">
<g class="j-menu-f">
	<path fill="#FF976E" d="M24,1.714c0,0.946-0.77,1.714-1.714,1.714H1.714C0.768,3.43,0,2.662,0,1.714l0,0C0,0.769,0.768,0,1.714,0
		h20.572C23.23,0,24,0.769,24,1.714L24,1.714z"/>
</g>
<g class="j-menu-s">
	<path fill="#FF976E" d="M24,18.285C24,19.232,23.23,20,22.286,20H1.714C0.768,20,0,19.232,0,18.285l0,0
		c0-0.945,0.768-1.715,1.714-1.715h20.572C23.23,16.57,24,17.34,24,18.285L24,18.285z"/>
</g>
<g class="j-menu-t">
	<path fill="#FF976E" d="M24,10c0,0.947-0.77,1.715-1.714,1.715H1.714C0.768,11.715,0,10.947,0,10l0,0
		c0-0.945,0.768-1.713,1.714-1.713h20.572C23.23,8.287,24,9.055,24,10L24,10z"/>
</g>
</svg>
