<?xml version="1.0" encoding="utf-8"?>
<!-- Generator: Adobe Illustrator 16.0.0, SVG Export Plug-In . SVG Version: 6.00 Build 0)  -->
<!DOCTYPE svg PUBLIC "-//W3C//DTD SVG 1.1//EN" "http://www.w3.org/Graphics/SVG/1.1/DTD/svg11.dtd">
<svg version="1.1" id="Layer_1" xmlns="http://www.w3.org/2000/svg" xmlns:xlink="http://www.w3.org/1999/xlink" x="0px" y="0px"
	 width="16px" height="14px" viewBox="0 0 16 14" enable-background="new 0 0 16 14" xml:space="preserve">
<g>
	<path fill="#FFFFFF" d="M13.656,1.344c0.446,0.446,0.445,1.172,0.001,1.616l-9.699,9.698c-0.445,0.445-1.17,0.445-1.615,0l0,0
		c-0.446-0.447-0.447-1.171,0-1.617l9.697-9.697C12.485,0.898,13.21,0.897,13.656,1.344L13.656,1.344z"/>
	<path fill="#FFFFFF" d="M2.343,1.344c0.445-0.446,1.172-0.445,1.615,0l9.698,9.697c0.445,0.446,0.445,1.17,0,1.617l0,0
		c-0.447,0.445-1.171,0.445-1.617,0L2.343,2.96C1.897,2.516,1.896,1.79,2.343,1.344L2.343,1.344z"/>
</g>
</svg>
