<?xml version="1.0" encoding="utf-8"?>
<!-- Generator: Adobe Illustrator 16.0.0, SVG Export Plug-In . SVG Version: 6.00 Build 0)  -->
<!DOCTYPE svg PUBLIC "-//W3C//DTD SVG 1.1//EN" "http://www.w3.org/Graphics/SVG/1.1/DTD/svg11.dtd">
<svg version="1.1" id="Layer_1" xmlns="http://www.w3.org/2000/svg" xmlns:xlink="http://www.w3.org/1999/xlink" x="0px" y="0px"
	 width="16px" height="14px" viewBox="4 3 16 14" enable-background="new 4 3 16 14" xml:space="preserve">
<g>
	<path fill="#FF976E" d="M20,4.477c0,0.631-0.513,1.143-1.143,1.143H5.143C4.512,5.62,4,5.108,4,4.477l0,0
		c0-0.631,0.512-1.143,1.143-1.143h13.715C19.487,3.334,20,3.846,20,4.477L20,4.477z"/>
	<path fill="#FF976E" d="M20,15.523c0,0.632-0.513,1.144-1.143,1.144H5.143C4.512,16.667,4,16.155,4,15.523l0,0
		c0-0.63,0.512-1.143,1.143-1.143h13.715C19.487,14.381,20,14.894,20,15.523L20,15.523z"/>
	<path fill="#FF976E" d="M20,10c0,0.632-0.513,1.144-1.143,1.144H5.143C4.512,11.144,4,10.632,4,10l0,0
		c0-0.63,0.512-1.142,1.143-1.142h13.715C19.487,8.858,20,9.37,20,10L20,10z"/>
</g>
</svg>
