<?xml version="1.0" encoding="utf-8"?>
<!-- Generator: Adobe Illustrator 16.0.0, SVG Export Plug-In . SVG Version: 6.00 Build 0)  -->
<!DOCTYPE svg PUBLIC "-//W3C//DTD SVG 1.1//EN" "http://www.w3.org/Graphics/SVG/1.1/DTD/svg11.dtd">
<svg version="1.1" id="Layer_1" xmlns="http://www.w3.org/2000/svg" xmlns:xlink="http://www.w3.org/1999/xlink" x="0px" y="0px"
	 width="24px" height="20px" viewBox="0 0 24 20" enable-background="new 0 0 24 20" xml:space="preserve">
<g>
	<path fill="#FFFFFF" d="M21.472,19.444c-0.664,0.664-1.74,0.663-2.402,0L2.557,2.932C1.894,2.269,1.894,1.194,2.558,0.53l0,0
		c0.662-0.663,1.738-0.664,2.401-0.001l16.513,16.513C22.135,17.704,22.135,18.782,21.472,19.444L21.472,19.444z"/>
	<path fill="#FFFFFF" d="M2.556,19.444c-0.663-0.662-0.663-1.74,0-2.402L19.068,0.529c0.663-0.663,1.739-0.662,2.401,0.001l0,0
		c0.664,0.664,0.664,1.738,0.001,2.401L4.958,19.444C4.296,20.107,3.219,20.108,2.556,19.444L2.556,19.444z"/>
</g>
</svg>
