<?xml version="1.0" encoding="utf-8"?>
<!-- Generator: Adobe Illustrator 16.0.0, SVG Export Plug-In . SVG Version: 6.00 Build 0)  -->
<!DOCTYPE svg PUBLIC "-//W3C//DTD SVG 1.1//EN" "http://www.w3.org/Graphics/SVG/1.1/DTD/svg11.dtd">
<svg version="1.1" id="Layer_1" xmlns="http://www.w3.org/2000/svg" xmlns:xlink="http://www.w3.org/1999/xlink" x="0px" y="0px"
	 width="1800px" height="741px" viewBox="0 -70.5 1800 741" enable-background="new 0 -70.5 1800 741" xml:space="preserve">
<rect x="0.001" y="-70.497" fill="#2B3F4E" width="1799.999" height="741.428"/>
<g>
	<rect x="0.001" y="-70.495" fill="#2B3F4E" width="1799.999" height="741.442"/>
	<rect x="0.001" y="522.662" fill="#293E4D" width="1799.999" height="74.143"/>
	<rect x="0.001" y="448.52" fill="#283D4C" width="1799.999" height="74.143"/>
	<rect x="0.001" y="374.379" fill="#263C4B" width="1799.999" height="74.143"/>
	<rect x="0.001" y="300.234" fill="#243A49" width="1799.999" height="74.143"/>
	<rect x="0.001" y="226.088" fill="#233948" width="1799.999" height="74.146"/>
	<rect x="0.001" y="151.942" fill="#223948" width="1799.999" height="74.146"/>
	<rect x="0.001" y="77.797" fill="#213847" width="1799.999" height="74.146"/>
	<rect x="0.001" y="3.651" fill="#1F3746" width="1799.999" height="74.146"/>
	<rect x="0.001" y="-70.495" fill="#1E3645" width="1799.999" height="74.146"/>
</g>
<path fill="#FF976E" d="M1203.27,422.366c6.981,0,12.641-5.657,12.641-12.64c0,6.982,5.66,12.64,12.642,12.64
	c-6.981,0-12.642,5.659-12.642,12.64C1215.91,428.025,1210.251,422.366,1203.27,422.366z"/>
<path fill="#F97A53" d="M1092.257,183.616c6.98,0,12.64-5.659,12.64-12.639c0,6.98,5.66,12.639,12.642,12.639
	c-6.981,0-12.642,5.659-12.642,12.641C1104.896,189.274,1099.237,183.616,1092.257,183.616z"/>
<path fill="#FF976E" d="M572.266,230.147c5.176,0,9.374-4.196,9.374-9.372c0,5.176,4.196,9.372,9.373,9.372
	c-5.177,0-9.373,4.197-9.373,9.374C581.64,234.344,577.442,230.147,572.266,230.147z"/>
<circle fill="#FDEFA9" cx="1312.683" cy="373.983" r="3.952"/>
<circle opacity="0.5" fill="#FDEFA9" cx="365.933" cy="147.547" r="2.548"/>
<circle opacity="0.5" fill="#FF976E" cx="1014.409" cy="311.559" r="1.852"/>
<circle fill="#FDEFA9" cx="1377.231" cy="532.468" r="1.852"/>
<circle fill="#FDEFA9" cx="1117.537" cy="390.588" r="1.851"/>
<circle fill="#FDEFA9" cx="838.113" cy="495.936" r="1.852"/>
<circle fill="#FDEFA9" cx="1092.257" cy="5.924" r="1.851"/>
<circle fill="#FDEFA9" cx="888.537" cy="108.975" r="1.851"/>
<circle fill="#FDEFA9" cx="692.371" cy="269.366" r="1.08"/>
<circle fill="#FDEFA9" cx="591.013" cy="382.231" r="1.851"/>
<circle opacity="0.5" fill="#FF976E" cx="716.753" cy="62.969" r="1.852"/>
<circle fill="#FDEFA9" cx="1217.762" cy="265.664" r="1.852"/>
<circle opacity="0.5" fill="#FF976E" cx="572.266" cy="520.807" r="0.974"/>
<g>
	<circle fill="#F97A53" cx="412.013" cy="371.487" r="33.186"/>
	<path opacity="0.1" d="M426.058,394.788c-18.329,0-33.186-14.857-33.186-33.187c0-8.104,2.907-15.525,7.732-21.288
		c-12.708,4.653-21.778,16.854-21.778,31.174c0,18.327,14.859,33.187,33.186,33.187c10.226,0,19.368-4.626,25.455-11.899
		C433.91,394.075,430.067,394.788,426.058,394.788z"/>
	<circle opacity="0.1" cx="427.522" cy="361.602" r="9.886"/>
	<path opacity="0.1" d="M421.524,364.097c0-5.459,4.425-9.886,9.886-9.886c1.137,0,2.229,0.201,3.246,0.559
		c-1.799-1.88-4.327-3.053-7.133-3.053c-5.458,0-9.886,4.425-9.886,9.885c0,4.32,2.776,7.984,6.639,9.327
		C422.574,369.155,421.524,366.752,421.524,364.097z"/>
	<path opacity="0.1" d="M404.389,351.717c0,1.892-1.535,3.426-3.429,3.426c-1.891,0-3.427-1.534-3.427-3.426
		c0-1.896,1.536-3.431,3.427-3.431C402.854,348.286,404.389,349.821,404.389,351.717z"/>
	<path opacity="0.1" d="M399.33,352.912c0-1.892,1.537-3.427,3.429-3.427c0.312,0,0.608,0.056,0.899,0.134
		c-0.629-0.805-1.598-1.333-2.697-1.333c-1.891,0-3.427,1.535-3.427,3.431c0,1.579,1.076,2.896,2.53,3.292
		C399.611,354.428,399.33,353.709,399.33,352.912z"/>
	<circle opacity="0.1" cx="429.103" cy="386.565" r="4.335"/>
	<path opacity="0.1" d="M427.039,388.081c0-2.394,1.943-4.335,4.336-4.335c0.396,0,0.771,0.069,1.135,0.169
		c-0.793-1.018-2.018-1.685-3.407-1.685c-2.395,0-4.335,1.939-4.335,4.335c0,1.999,1.36,3.663,3.2,4.166
		C427.395,389.997,427.039,389.085,427.039,388.081z"/>
	<circle opacity="0.1" cx="399.164" cy="380.275" r="6.291"/>
	<path opacity="0.1" d="M395.419,382.671c0-3.473,2.817-6.291,6.291-6.291c1.033,0,1.992,0.272,2.853,0.714
		c-1.095-1.854-3.091-3.11-5.4-3.11c-3.474,0-6.291,2.817-6.291,6.292c0,2.44,1.406,4.533,3.438,5.578
		C395.757,384.915,395.419,383.837,395.419,382.671z"/>
</g>
<g>
	<path fill="#FFFFFF" d="M788.713,237.42c-0.18,10.621-9.017,15.711-17.975,15.711c-1.539,0-8.838-0.735-13.071-4.787
		c1.468-1.477,4.417-4.417,8.771-8.903c0.926,0.927,2.335,1.537,4.731,1.537c3.127,0,5.463-1.962,5.463-5.337v-28.54h12.082V237.42z
		"/>
	<path fill="#FFFFFF" d="M765.895,303.443v16.393h14.603v-16.393h12.089v46.037h-12.089v-17.555h-14.603v17.555h-12.091v-46.037
		H765.895z"/>
	<path fill="#FFFFFF" d="M875.528,332.539v16.941h-11.97v-16.941l-16.818-29.096h13.927l8.837,15.346l8.908-15.346h13.926
		L875.528,332.539z"/>
	<path fill="#FFFFFF" d="M951.59,377.32h28.604v9.998h-16.511v7.498h14.605v10.178h-14.605v8.477h16.511v9.885H951.59V377.32z"/>
	<path fill="#FFFFFF" d="M959.845,207.106h12.089v46.03h-12.089V207.106z"/>
</g>
<path opacity="0.4" fill="none" stroke="#FFFFFF" stroke-width="0.25" stroke-miterlimit="10" d="M639.4-70.495
	C521.86,181.962,284.269,367.241,0,411.97"/>
<path opacity="0.4" fill="none" stroke="#FFFFFF" stroke-width="0.25" stroke-miterlimit="10" d="M0,645.925
	C140.024,284.631,490.938,28.458,901.683,28.458c405.035,0,751.887,249.099,895.717,602.456"/>
<circle fill="#213847" cx="533.302" cy="101.027" r="6.928"/>
<circle opacity="0.4" fill="none" stroke="#FFFFFF" stroke-miterlimit="10" cx="533.302" cy="101.027" r="4.158"/>
<path fill="#2B3F4E" d="M1405.933,151.248c0,31.546-25.573,57.118-57.115,57.118c-31.545,0-57.119-25.572-57.119-57.118
	c0-31.545,25.574-57.116,57.119-57.116C1380.359,94.132,1405.933,119.703,1405.933,151.248z"/>
<g>
	<path fill="#FF976E" d="M1400.237,151.248c0,28.4-23.023,51.423-51.42,51.423c-28.4,0-51.425-23.023-51.425-51.423
		c0-28.4,23.024-51.421,51.425-51.421C1377.214,99.827,1400.237,122.848,1400.237,151.248z"/>
	<g>
		<defs>
			<circle id="SVGID_1_" cx="1348.815" cy="151.248" r="51.422"/>
		</defs>
		<clipPath id="SVGID_2_">
			<use xlink:href="#SVGID_1_"  overflow="visible"/>
		</clipPath>
		<g clip-path="url(#SVGID_2_)">
			<path opacity="0.5" fill="#F97A53" d="M1373.888,106.354c10.95,9.43,17.893,23.386,17.893,38.969
				c0,28.401-23.023,51.423-51.422,51.423c-9.107,0-17.656-2.377-25.072-6.53c9.001,7.755,20.715,12.455,33.531,12.455
				c28.396,0,51.42-23.023,51.42-51.423C1400.237,131.956,1389.606,115.154,1373.888,106.354z"/>
			<path opacity="0.5" fill="#F97A53" d="M1409.068,147.378h-22.438c-3.23,0-5.854-2.622-5.854-5.851
				c0-3.232,2.623-5.851,5.854-5.851h12.401c3.231,0,5.853-2.619,5.853-5.851c0-3.229-2.621-5.85-5.853-5.85h-54.806
				c-3.229,0-5.849,2.621-5.849,5.85c0,3.231,2.619,5.851,5.849,5.851h22.944c3.229,0,5.85,2.619,5.85,5.851
				c0,3.229-2.62,5.851-5.85,5.851h-2.87c-3.229,0-5.849,2.618-5.849,5.851c0,3.229,2.619,5.852,5.849,5.852h44.768
				c3.233,0,5.853-2.623,5.853-5.852C1414.921,149.997,1412.302,147.378,1409.068,147.378z"/>
			<path opacity="0.5" fill="#F97A53" d="M1326.981,112.206h-22.439c-3.23,0-5.85-2.618-5.85-5.848c0-3.233,2.619-5.853,5.85-5.853
				h12.403c3.231,0,5.853-2.621,5.853-5.849c0-3.231-2.621-5.852-5.853-5.852h-54.805c-3.228,0-5.85,2.621-5.85,5.852
				c0,3.228,2.622,5.849,5.85,5.849h22.941c3.234,0,5.853,2.62,5.853,5.853c0,3.23-2.618,5.848-5.853,5.848h-2.866
				c-3.231,0-5.854,2.62-5.854,5.853c0,3.229,2.622,5.849,5.854,5.849h44.766c3.233,0,5.851-2.62,5.851-5.849
				C1332.832,114.826,1330.215,112.206,1326.981,112.206z"/>
			<path opacity="0.5" fill="#F97A53" d="M1424.605,173.983h-102.73c-3.229,0-5.851-2.616-5.851-5.847
				c0-3.232,2.622-5.853,5.851-5.853h12.401c3.23,0,5.854-2.62,5.854-5.849c0-3.231-2.623-5.851-5.854-5.851h-54.803
				c-3.229,0-5.849,2.62-5.849,5.851c0,3.229,2.619,5.849,5.849,5.849h22.941c3.233,0,5.85,2.621,5.85,5.853
				c0,3.23-2.616,5.847-5.85,5.847h-2.868c-3.231,0-5.851,2.622-5.851,5.853c0,3.232,2.619,5.848,5.851,5.848h125.059
				c3.233,0,5.852-2.615,5.852-5.848C1430.457,176.605,1427.839,173.983,1424.605,173.983z"/>
		</g>
	</g>
</g>
</svg>
