<?xml version="1.0" encoding="utf-8"?>
<!-- Generator: Adobe Illustrator 16.0.0, SVG Export Plug-In . SVG Version: 6.00 Build 0)  -->
<!DOCTYPE svg PUBLIC "-//W3C//DTD SVG 1.1//EN" "http://www.w3.org/Graphics/SVG/1.1/DTD/svg11.dtd">
<svg version="1.1" id="Layer_1" xmlns="http://www.w3.org/2000/svg" xmlns:xlink="http://www.w3.org/1999/xlink" x="0px" y="0px"
	 width="1800px" height="500px" viewBox="0 0 1800 500" enable-background="new 0 0 1800 500" xml:space="preserve">
<rect x="-0.421" fill="#FF8062" width="1800" height="500"/>
<g>
	<path fill="#F6CEB4" d="M982.981,286.559c0,44.419-36.003,80.43-80.423,80.43l0,0c-44.431,0-80.436-36.011-80.436-80.43v-57.321
		c0-44.433,36.005-80.42,80.436-80.42l0,0c44.419,0,80.423,35.987,80.423,80.42V286.559z"/>
	<g>
		<path fill="#382F27" d="M876.95,256.777c0,5.791-4.684,10.472-10.483,10.472c-5.783,0-10.483-4.681-10.483-10.472
			c0-5.792,4.701-10.472,10.483-10.472C872.265,246.305,876.95,250.985,876.95,256.777z"/>
		<path fill="#382F27" d="M947.346,256.777c0,5.791-4.688,10.472-10.479,10.472c-5.799,0-10.487-4.681-10.487-10.472
			c0-5.792,4.688-10.472,10.487-10.472C942.657,246.305,947.346,250.985,947.346,256.777z"/>
	</g>
	<path fill="#F58E83" d="M897.8,269.836c2.126-3.682,5.607-3.682,7.733,0c2.126,3.672,5.604,9.722,7.729,13.401
		c2.13,3.681,0.391,6.682-3.861,6.682c-4.254,0-11.21,0-15.461,0c-4.251,0-5.986-3.001-3.86-6.682
		C892.205,279.558,895.675,273.508,897.8,269.836z"/>
	<path fill="#F58E83" d="M858.073,306.831c0,24.076,19.518,43.591,43.6,43.591c24.08,0,43.595-19.515,43.595-43.591H858.073z"/>
	<g>
		<path fill="#FF6F64" d="M929.692,340.2c-4.923-10.558-15.599-17.888-28.02-17.888c-12.43,0-23.101,7.33-28.032,17.888
			c7.581,6.376,17.353,10.223,28.032,10.223C912.348,350.422,922.127,346.576,929.692,340.2z"/>
	</g>
	<path opacity="0.5" fill="#382F27" enable-background="new    " d="M847.621,229.621c-0.327,0-0.655-0.078-0.964-0.227
		c-1.044-0.547-1.441-1.813-0.911-2.837c2.982-5.83,11.321-9.721,20.721-9.721c9.421,0,17.74,3.891,20.74,9.721
		c0.523,1.024,0.121,2.29-0.915,2.813c-1.042,0.546-2.312,0.156-2.855-0.906c-2.239-4.37-9.21-7.433-16.97-7.433
		c-7.736,0-14.715,3.063-16.97,7.433C849.122,229.199,848.387,229.621,847.621,229.621z"/>
	<path opacity="0.5" fill="#382F27" enable-background="new    " d="M918.009,229.621c-0.32,0-0.641-0.078-0.961-0.227
		c-1.023-0.547-1.438-1.813-0.913-2.837c2.993-5.83,11.322-9.721,20.732-9.721c9.408,0,17.737,3.891,20.732,9.721
		c0.523,1.024,0.116,2.29-0.915,2.813c-1.039,0.546-2.312,0.156-2.836-0.906c-2.259-4.37-9.229-7.433-16.981-7.433
		c-7.736,0-14.723,3.063-16.974,7.433C919.518,229.199,918.774,229.621,918.009,229.621z"/>
	<path fill="#3F3832" d="M999.26,224.673c0,0,0,0,0-0.031c1.961-56.961-58.611-84.055-58.611-84.055
		c-48.667-19.505-73.994,4.807-73.994,4.807c-7.405,6.627-5.783,15.059-5.783,15.059c-2.704-19.021-28.852-7.455-28.852-7.455
		c-40.699,16.356-34.17,134.585-34.17,134.585c-0.671,41.051-15.078,48.771-15.078,48.771c24.011,22.732,63.479,7.9,63.479,7.9
		c-31.416-33.627-24.127-107.788-24.127-107.788c-0.324-4.94-0.08-9.698,0.543-14.254c2.442-10.707,8.912-15.528,8.912-15.528
		c29.981-23.976,31.307-38.207,30.208-43.685c1.762,3.54,6.769,9.502,20.631,10.3c0,0,93.21,3.883,100.564,64.221
		c0,0,9.384,74.068-21.968,104.25c0,0,18.615,15.168,57.234,0C1003.05,340.121,999.26,224.673,999.26,224.673z"/>
	<path fill="#F6CEB4" d="M955.997,271.913c-1.548-3.297-2.431-7.002-2.431-10.916c0-13.543,10.332-24.53,23.093-24.53
		c12.77,0,23.107,10.986,23.107,24.53c0,8.337-3.915,15.66-9.901,20.114c0.22,1.243,0.352,2.501,0.352,3.822
		c0,11.313-8.65,20.513-19.301,20.513c-10.685,0-19.327-9.199-19.327-20.513C951.589,279.979,953.245,275.446,955.997,271.913z"/>
	<path fill="#F6CEB4" d="M849.122,271.913c1.54-3.297,2.422-7.002,2.422-10.916c0-13.543-10.338-24.53-23.1-24.53
		c-12.754,0-23.104,10.986-23.104,24.53c0,8.337,3.916,15.66,9.909,20.114c-0.223,1.243-0.352,2.501-0.352,3.822
		c0,11.313,8.635,20.513,19.302,20.513c10.667,0,19.322-9.199,19.322-20.513C853.521,279.979,851.861,275.446,849.122,271.913z"/>
</g>
<g>
	<path fill="#FFFFFF" d="M1159.001,217.561c0,5.663,4.587,10.267,10.256,10.267h159.108c5.669,0,10.262-4.604,10.262-10.267l0,0
		c0-5.652-4.593-10.246-10.262-10.246h-159.108C1163.588,207.315,1159.001,211.909,1159.001,217.561L1159.001,217.561z"/>
	<path fill="#FFFFFF" d="M1210.533,181.348c0,20.004,16.221,36.213,36.23,36.213c19.993,0,36.208-16.209,36.208-36.213
		c0-20.011-16.215-36.225-36.208-36.225C1226.753,145.123,1210.533,161.337,1210.533,181.348z"/>
	<path fill="#FFFFFF" d="M1173.135,191.723c0,14.839,12.016,26.869,26.858,26.869c14.844,0,26.882-12.031,26.882-26.869
		c0-14.849-12.038-26.875-26.882-26.875S1173.135,176.875,1173.135,191.723z"/>
	<path fill="#FFFFFF" d="M1274.758,198.583c0,10.376,8.422,18.798,18.803,18.798c10.377,0,18.788-8.421,18.788-18.798
		c0-10.372-8.411-18.792-18.788-18.792C1283.178,179.791,1274.758,188.211,1274.758,198.583z"/>
	<path fill="#FFFFFF" d="M1258.43,200.139c0,10.376,8.422,18.798,18.797,18.798c10.376,0,18.787-8.422,18.787-18.798
		c0-10.382-8.41-18.792-18.787-18.792C1266.851,181.347,1258.43,189.758,1258.43,200.139z"/>
</g>
<g>
	<path fill="#FFFFFF" d="M639.75,277.011c0,4.518-3.66,8.189-8.182,8.189H504.652c-4.521,0-8.185-3.672-8.185-8.189l0,0
		c0-4.51,3.664-8.172,8.185-8.172h126.917C636.09,268.839,639.75,272.501,639.75,277.011L639.75,277.011z"/>
	<path fill="#FFFFFF" d="M598.644,248.125c0,15.956-12.938,28.886-28.899,28.886c-15.948,0-28.882-12.93-28.882-28.886
		c0-15.962,12.934-28.896,28.882-28.896C585.705,219.229,598.644,232.163,598.644,248.125z"/>
	<path fill="#FFFFFF" d="M628.476,256.401c0,11.836-9.584,21.433-21.425,21.433s-21.442-9.597-21.442-21.433
		c0-11.845,9.603-21.438,21.442-21.438C618.891,234.964,628.476,244.557,628.476,256.401z"/>
	<path fill="#FFFFFF" d="M547.414,261.874c0,8.275-6.717,14.994-14.999,14.994c-8.277,0-14.986-6.719-14.986-14.994
		c0-8.272,6.709-14.991,14.986-14.991C540.696,246.883,547.414,253.6,547.414,261.874z"/>
	<path fill="#FFFFFF" d="M560.438,263.114c0,8.277-6.718,14.995-14.994,14.995s-14.985-6.718-14.985-14.995
		c0-8.281,6.708-14.989,14.985-14.989S560.438,254.833,560.438,263.114z"/>
</g>
</svg>
