<?xml version="1.0" encoding="utf-8"?>
<!-- Generator: Adobe Illustrator 16.0.0, SVG Export Plug-In . SVG Version: 6.00 Build 0)  -->
<!DOCTYPE svg PUBLIC "-//W3C//DTD SVG 1.1//EN" "http://www.w3.org/Graphics/SVG/1.1/DTD/svg11.dtd">
<svg version="1.1" id="Layer_1" xmlns="http://www.w3.org/2000/svg" xmlns:xlink="http://www.w3.org/1999/xlink" x="0px" y="0px"
	 width="900px" height="500px" viewBox="0 0 900 500" enable-background="new 0 0 900 500" xml:space="preserve">
<rect fill="#66D1C9" width="900" height="500.002"/>
<g>
	<path fill="#FFBA4D" d="M590.605,234.534c0,0.391-0.315,0.708-0.708,0.708h-14.799c-0.392,0-0.71-0.317-0.71-0.708v-22.643
		c0-0.391,0.318-0.708,0.71-0.708h14.799c0.393,0,0.708,0.317,0.708,0.708V234.534z"/>
	<path fill="#FB7157" d="M590.605,273.028c0,0.393-0.315,0.708-0.708,0.708h-14.799c-0.392,0-0.71-0.315-0.71-0.708v-22.642
		c0-0.392,0.318-0.71,0.71-0.71h14.799c0.393,0,0.708,0.318,0.708,0.71V273.028z"/>
	<g>
		<path fill="#FFFFFF" d="M474.306,165.221c0,5.416,4.391,9.816,9.816,9.816h152.266c5.423,0,9.819-4.4,9.819-9.816l0,0
			c0-5.424-4.396-9.813-9.819-9.813H484.122C478.696,155.408,474.306,159.797,474.306,165.221L474.306,165.221z"/>
		<path fill="#FFFFFF" d="M523.621,130.559c0,19.141,15.518,34.662,34.665,34.662c19.143,0,34.658-15.521,34.658-34.662
			c0-19.146-15.516-34.667-34.658-34.667C539.139,95.893,523.621,111.413,523.621,130.559z"/>
		<path fill="#FFFFFF" d="M487.823,140.487c0,14.202,11.512,25.722,25.718,25.722c14.205,0,25.721-11.521,25.721-25.722
			c0-14.209-11.516-25.714-25.721-25.714C499.335,114.773,487.823,126.278,487.823,140.487z"/>
		<path fill="#FFFFFF" d="M585.087,147.053c0,9.932,8.054,17.986,17.989,17.986c9.932,0,17.984-8.054,17.984-17.986
			s-8.053-17.981-17.984-17.981C593.141,129.071,585.087,137.121,585.087,147.053z"/>
		<circle fill="#FFFFFF" cx="587.442" cy="148.545" r="17.985"/>
	</g>
	<path fill="#F45A45" d="M342.916,142.268v-0.1c0-1.678,1.361-3.037,3.037-3.037h0.344c1.678,0,3.038,1.359,3.038,3.037v0.1"/>
	<g>
		<path fill="#FB7157" d="M669.844,190.873c1.691-4.038-0.215-8.685-4.252-10.373c-4.037-1.689-8.68,0.219-10.369,4.254
			l-6.196,14.819l14.621,6.117L669.844,190.873z"/>
		<path fill="#F77E6D" d="M667.722,207.395l-4.074-1.705l-14.621-6.117l-4.53-1.895c-1.247-0.519-2.676,0.064-3.195,1.31
			l-4.309,10.3c-0.519,1.242,0.065,2.671,1.309,3.191l3.589,1.5l16.729,6.997l2.912,1.219c1.242,0.52,2.674-0.065,3.193-1.306
			l4.306-10.302C669.551,209.345,668.964,207.914,667.722,207.395z"/>
		<g>
			<path fill="#EAEAEA" d="M651.24,227.396c-0.305-0.126-0.45-0.48-0.325-0.786c0.133-0.303,0.481-0.45,0.786-0.32l3.996,1.671
				l1.221-2.914l-3.996-1.669c-0.305-0.129-0.451-0.48-0.323-0.786c0.13-0.308,0.479-0.45,0.786-0.323l3.994,1.671l1.239-2.964
				l-16.729-6.997l-32.643,78.034c-0.865,2.072-1.085,4.717-0.657,7.19l-0.008-0.007c0,0,0.951,6.253-1.678,13.969
				c-0.654,1.56,0.086,3.355,1.647,4.011c1.562,0.65,3.357-0.086,4.01-1.646c3.648-7.288,8.768-11.006,8.768-11.006l-0.011,0.004
				c2.061-1.434,3.792-3.447,4.659-5.518l0.665-1.592l-3.992-1.67c-0.309-0.127-0.452-0.479-0.322-0.784
				c0.126-0.309,0.479-0.45,0.785-0.321l3.992,1.67l1.221-2.915l-3.995-1.67c-0.304-0.127-0.45-0.48-0.323-0.784
				c0.127-0.309,0.48-0.451,0.785-0.323l3.996,1.67l1.218-2.913l-3.996-1.67c-0.305-0.127-0.448-0.479-0.321-0.786
				c0.129-0.303,0.48-0.45,0.787-0.321l3.994,1.674l1.216-2.918l-7.254-3.034c-0.309-0.131-0.452-0.482-0.323-0.787
				c0.127-0.303,0.479-0.448,0.782-0.323l7.261,3.038l1.218-2.911l-3.994-1.672c-0.305-0.129-0.45-0.48-0.323-0.788
				c0.129-0.303,0.481-0.446,0.786-0.317l3.993,1.666l1.218-2.911l-3.993-1.67c-0.304-0.127-0.449-0.48-0.322-0.784
				c0.127-0.307,0.481-0.45,0.786-0.321l3.994,1.666l1.218-2.911l-3.994-1.67c-0.307-0.129-0.45-0.479-0.323-0.786
				c0.131-0.305,0.482-0.45,0.791-0.319l3.992,1.668l1.216-2.913l-7.258-3.037c-0.305-0.125-0.448-0.479-0.319-0.787
				c0.127-0.303,0.478-0.446,0.782-0.319l7.257,3.036l1.222-2.915l-3.996-1.67c-0.307-0.129-0.448-0.479-0.321-0.784
				c0.129-0.307,0.479-0.45,0.786-0.321l3.992,1.668l1.219-2.912l-3.99-1.671c-0.307-0.129-0.451-0.479-0.324-0.786
				c0.128-0.305,0.48-0.448,0.783-0.319l3.996,1.67l1.217-2.914l-3.991-1.671c-0.306-0.125-0.45-0.479-0.323-0.786
				c0.129-0.303,0.479-0.45,0.785-0.319l3.992,1.668l1.22-2.912l-7.256-3.039c-0.309-0.125-0.452-0.479-0.323-0.785
				c0.129-0.305,0.479-0.45,0.785-0.321l7.256,3.034l1.222-2.913l-3.996-1.669c-0.303-0.127-0.448-0.481-0.319-0.784
				c0.127-0.307,0.479-0.451,0.782-0.322l3.997,1.668l1.216-2.913l-3.992-1.668c-0.307-0.129-0.45-0.479-0.321-0.786
				c0.127-0.307,0.478-0.451,0.782-0.323l3.994,1.671l1.223-2.916l-3.997-1.67c-0.308-0.126-0.45-0.478-0.321-0.783
				c0.129-0.31,0.48-0.451,0.785-0.325l3.992,1.674l1.218-2.917l-7.031-2.942c-0.307-0.127-0.45-0.48-0.323-0.785
				c0.129-0.304,0.479-0.447,0.786-0.321l7.036,2.943l1.216-2.916l-3.992-1.666c-0.309-0.13-0.45-0.482-0.321-0.788
				c0.127-0.305,0.477-0.452,0.784-0.32l3.991,1.669l1.22-2.915L651.24,227.396z"/>
			<path fill="#B4B4B5" d="M652.599,222.592c-0.128,0.306,0.019,0.657,0.323,0.786l3.996,1.669l0.461-1.106l-3.994-1.671
				C653.078,222.143,652.729,222.285,652.599,222.592z"/>
			<path fill="#B4B4B5" d="M650.915,226.61c-0.125,0.306,0.021,0.66,0.325,0.786l3.992,1.67l0.465-1.106l-3.996-1.671
				C651.396,226.16,651.048,226.307,650.915,226.61z"/>
			<path fill="#B4B4B5" d="M649.237,230.633c-0.129,0.306,0.013,0.658,0.321,0.788l3.992,1.666l0.462-1.105l-3.991-1.669
				C649.714,230.181,649.364,230.328,649.237,230.633z"/>
			<path fill="#B4B4B5" d="M644.513,233.38c-0.127,0.305,0.017,0.658,0.323,0.785l7.031,2.942l0.468-1.105l-7.036-2.943
				C644.992,232.933,644.642,233.076,644.513,233.38z"/>
			<path fill="#B4B4B5" d="M645.872,238.676c-0.129,0.305,0.014,0.656,0.321,0.783l3.997,1.67l0.459-1.104l-3.992-1.674
				C646.353,238.225,646.001,238.366,645.872,238.676z"/>
			<path fill="#B4B4B5" d="M644.191,242.696c-0.129,0.307,0.015,0.656,0.321,0.786l3.992,1.668l0.463-1.105l-3.994-1.671
				C644.669,242.245,644.318,242.39,644.191,242.696z"/>
			<path fill="#B4B4B5" d="M642.51,246.717c-0.129,0.303,0.017,0.657,0.319,0.784l3.996,1.669l0.464-1.108l-3.997-1.668
				C642.988,246.266,642.637,246.41,642.51,246.717z"/>
			<path fill="#B4B4B5" d="M637.562,249.37c-0.129,0.307,0.015,0.66,0.323,0.785l7.256,3.039l0.462-1.11l-7.256-3.034
				C638.041,248.92,637.691,249.065,637.562,249.37z"/>
			<path fill="#B4B4B5" d="M639.145,254.757c-0.127,0.308,0.018,0.661,0.323,0.786l3.991,1.671l0.463-1.108l-3.992-1.668
				C639.623,254.307,639.273,254.454,639.145,254.757z"/>
			<path fill="#B4B4B5" d="M637.463,258.777c-0.127,0.308,0.018,0.657,0.324,0.786l3.99,1.671l0.465-1.106l-3.996-1.67
				C637.943,258.329,637.591,258.473,637.463,258.777z"/>
			<path fill="#B4B4B5" d="M635.78,262.8c-0.127,0.306,0.015,0.655,0.321,0.784l3.996,1.67l0.461-1.107l-3.992-1.668
				C636.26,262.35,635.909,262.493,635.78,262.8z"/>
			<path fill="#B4B4B5" d="M630.837,265.452c-0.129,0.309,0.015,0.662,0.319,0.787l7.258,3.037l0.462-1.107l-7.257-3.036
				C631.314,265.006,630.964,265.149,630.837,265.452z"/>
			<path fill="#B4B4B5" d="M632.415,270.841c-0.127,0.308,0.017,0.657,0.323,0.786l3.994,1.67l0.466-1.107l-3.992-1.668
				C632.897,270.391,632.546,270.536,632.415,270.841z"/>
			<path fill="#B4B4B5" d="M630.734,274.863c-0.127,0.304,0.019,0.657,0.322,0.784l3.993,1.67l0.465-1.109l-3.994-1.666
				C631.216,274.413,630.861,274.557,630.734,274.863z"/>
			<path fill="#B4B4B5" d="M629.053,278.88c-0.127,0.308,0.019,0.659,0.323,0.788l3.994,1.672l0.462-1.111l-3.993-1.666
				C629.534,278.434,629.182,278.577,629.053,278.88z"/>
			<path fill="#B4B4B5" d="M624.109,281.536c-0.129,0.305,0.015,0.656,0.323,0.787l7.254,3.034l0.466-1.106l-7.261-3.038
				C624.588,281.088,624.236,281.233,624.109,281.536z"/>
			<path fill="#B4B4B5" d="M625.689,286.923c-0.127,0.308,0.017,0.659,0.321,0.786l3.996,1.67l0.464-1.104l-3.994-1.674
				C626.17,286.473,625.818,286.62,625.689,286.923z"/>
			<path fill="#B4B4B5" d="M624.008,290.945c-0.127,0.304,0.02,0.657,0.323,0.784l3.995,1.67l0.463-1.107l-3.996-1.67
				C624.488,290.494,624.135,290.637,624.008,290.945z"/>
			<path fill="#B4B4B5" d="M622.328,294.966c-0.13,0.306,0.014,0.657,0.322,0.784l3.992,1.67l0.463-1.105l-3.992-1.67
				C622.807,294.516,622.454,294.657,622.328,294.966z"/>
		</g>
		<path fill="#FFFFFF" d="M616.265,293.635c-0.431,1.026-1.61,1.51-2.635,1.082l0,0c-1.027-0.43-1.512-1.608-1.081-2.636
			l29.926-71.542c0.43-1.026,1.608-1.511,2.632-1.078l0,0c1.027,0.426,1.512,1.603,1.084,2.631L616.265,293.635z"/>
	</g>
	<g>
		<path fill="#FFFFFF" d="M308.142,256.762c0,3.139-2.543,5.69-5.688,5.69h-88.261c-3.144,0-5.691-2.552-5.691-5.69l0,0
			c0-3.143,2.548-5.689,5.691-5.689h88.261C305.599,251.072,308.142,253.619,308.142,256.762L308.142,256.762z"/>
		<circle fill="#FFFFFF" cx="259.466" cy="236.668" r="20.092"/>
		<circle fill="#FFFFFF" cx="285.4" cy="242.424" r="14.908"/>
		<circle fill="#FFFFFF" cx="233.504" cy="246.229" r="10.426"/>
		<circle fill="#FFFFFF" cx="242.565" cy="247.094" r="10.426"/>
	</g>
	<ellipse opacity="0.05" cx="438.114" cy="384.489" rx="115.257" ry="19.619"/>
	<path fill="#C6C3C3" d="M400.68,245.588c0-2.66,2.153-4.813,4.812-4.813h65.248c2.663,0,4.814,2.153,4.814,4.813v128.068
		c0,2.661-2.151,4.813-4.814,4.813h-65.248c-2.658,0-4.812-2.152-4.812-4.813V245.588z"/>
	<polygon fill="#EAEAE9" points="496.938,384.489 496.938,384.489 379.289,384.489 379.289,384.489 379.289,372.457 
		379.289,372.457 496.938,372.457 496.938,372.457 	"/>
	<path fill="#515252" d="M568.06,141.172H308.168c-7.977,0-14.439,6.463-14.439,14.439v154.011h288.77V155.611
		C582.499,147.636,576.041,141.172,568.06,141.172z"/>
	<path fill="#F7F7F7" d="M563.389,286.185c0,2.655-2.154,4.811-4.814,4.811H318.283c-2.656,0-4.813-2.155-4.813-4.811V166.037
		c0-2.661,2.157-4.813,4.813-4.813h240.291c2.66,0,4.814,2.153,4.814,4.813V286.185z"/>
	<path fill="#EAEAE9" d="M293.729,309.622v16.313c0,7.979,6.462,14.439,14.439,14.439H568.06c7.981,0,14.439-6.46,14.439-14.439
		v-16.313H293.729z"/>
	<path fill="#FB7157" d="M346.203,139.131h-20.891h-0.342c-1.677,0-3.038,1.359-3.038,3.037v0.1v55.724l10.531-11.904l10.532,11.904
		v-55.724v-0.1c0-1.678,1.36-3.037,3.038-3.037h0.342"/>
	<g>
		<path fill="#DDDDDD" d="M525.678,281.297c0,1.841-1.5,3.339-3.344,3.339H354.522c-1.847,0-3.341-1.498-3.341-3.339V170.921
			c0-1.841,1.494-3.34,3.341-3.34h167.812c1.844,0,3.344,1.499,3.344,3.34V281.297z"/>
		<rect x="356.182" y="186.228" fill="#565959" width="164.497" height="93.524"/>
		<g>
			<path fill="#F96C4B" d="M361.384,176.393c0,1.436-1.162,2.6-2.602,2.6c-1.438,0-2.601-1.164-2.601-2.6s1.163-2.6,2.601-2.6
				C360.222,173.792,361.384,174.957,361.384,176.393z"/>
			<circle fill="#FFBD4F" cx="368.193" cy="176.393" r="2.601"/>
			<circle fill="#00C958" cx="377.607" cy="176.393" r="2.602"/>
		</g>
		<rect x="386.503" y="173.052" fill="#FFFFFF" width="119.207" height="6.681"/>
		<g>
			<path fill="#B2B2B2" d="M520.679,174.014c0,0.289-0.232,0.521-0.521,0.521h-7.89c-0.288,0-0.52-0.232-0.52-0.521l0,0
				c0-0.287,0.231-0.521,0.52-0.521h7.89C520.446,173.493,520.679,173.728,520.679,174.014L520.679,174.014z"/>
			<path fill="#B2B2B2" d="M520.679,178.771c0,0.287-0.232,0.521-0.521,0.521h-7.89c-0.288,0-0.52-0.234-0.52-0.521l0,0
				c0-0.289,0.231-0.523,0.52-0.523h7.89C520.446,178.248,520.679,178.482,520.679,178.771L520.679,178.771z"/>
			<path fill="#B2B2B2" d="M520.679,176.393c0,0.287-0.232,0.521-0.521,0.521h-7.89c-0.288,0-0.52-0.234-0.52-0.521l0,0
				c0-0.289,0.231-0.521,0.52-0.521h7.89C520.446,175.872,520.679,176.104,520.679,176.393L520.679,176.393z"/>
		</g>
		<g>
			<rect x="370.134" y="195.627" fill="#00B79C" width="48.466" height="2.246"/>
			<rect x="370.134" y="245" fill="#00B79C" width="48.466" height="2.245"/>
			<rect x="380.582" y="201.112" fill="#00B79C" width="60.792" height="2.248"/>
			<rect x="380.582" y="223.057" fill="#00B79C" width="60.792" height="2.246"/>
			<rect x="380.582" y="239.514" fill="#00B79C" width="60.792" height="2.246"/>
			<rect x="389.555" y="228.543" fill="#00B79C" width="39.847" height="2.246"/>
			<rect x="389.555" y="234.027" fill="#00B79C" width="39.847" height="2.246"/>
			<rect x="387.125" y="206.598" fill="#00B79C" width="60.792" height="2.248"/>
			<rect x="387.125" y="212.084" fill="#00B79C" width="58.09" height="2.249"/>
			<rect x="387.125" y="217.571" fill="#00B79C" width="58.09" height="2.246"/>
		</g>
		<rect x="356.182" y="257.122" fill="#3F4243" width="164.497" height="22.63"/>
	</g>
	<g>
		<defs>
			<circle id="SVGID_1_" cx="438.114" cy="150.774" r="1.331"/>
		</defs>
		<use xlink:href="#SVGID_1_"  overflow="visible" fill="#404243"/>
		<clipPath id="SVGID_2_">
			<use xlink:href="#SVGID_1_"  overflow="visible"/>
		</clipPath>
		<circle clip-path="url(#SVGID_2_)" fill="#585D60" cx="438.453" cy="150.513" r="1.331"/>
	</g>
	<text transform="matrix(1 0 0 1 358.0347 197.501)"><tspan x="0" y="0" fill="#6C6D6D" font-family="'Lato-Semibold'" font-size="2.2241">1</tspan><tspan x="0" y="5.449" fill="#6C6D6D" font-family="'Lato-Semibold'" font-size="2.2241">2</tspan><tspan x="0" y="10.898" fill="#6C6D6D" font-family="'Lato-Semibold'" font-size="2.2241">3</tspan><tspan x="0" y="16.347" fill="#6C6D6D" font-family="'Lato-Semibold'" font-size="2.2241">4</tspan><tspan x="0" y="21.796" fill="#6C6D6D" font-family="'Lato-Semibold'" font-size="2.2241">5</tspan><tspan x="0" y="27.245" fill="#6C6D6D" font-family="'Lato-Semibold'" font-size="2.2241">6</tspan><tspan x="0" y="32.694" fill="#6C6D6D" font-family="'Lato-Semibold'" font-size="2.2241">7</tspan><tspan x="0" y="38.143" fill="#6C6D6D" font-family="'Lato-Semibold'" font-size="2.2241">8</tspan><tspan x="0" y="43.592" fill="#6C6D6D" font-family="'Lato-Semibold'" font-size="2.2241">9</tspan><tspan x="-0.589" y="49.041" fill="#6C6D6D" font-family="'Lato-Semibold'" font-size="2.2241">10</tspan></text>
	<rect x="361.328" y="186.228" fill="#6C6D6D" width="0.11" height="70.895"/>
	<rect x="356.182" y="186.228" fill="#6C6D6D" width="5.257" height="70.895"/>
	<g>
		<g>
			<polygon fill="#F77E6D" points="211.253,318.365 193.926,291.498 201.867,292.82 211.871,286.356 213.935,278.577 
				231.259,305.444 229.598,313.164 229.489,313.682 219.488,320.141 			"/>
			<polygon fill="#FB7157" points="201.867,292.82 219.488,320.141 229.489,313.682 211.867,286.36 			"/>
			<polygon fill="#EF6250" points="214.069,311.75 201.867,292.82 193.926,291.498 211.253,318.365 218.972,320.028 219.49,320.137 
							"/>
		</g>
		<g>
			<polygon fill="#F4F5F5" points="205.22,309.035 187.892,282.168 195.833,283.488 205.838,277.026 207.9,269.245 225.227,296.11 
				223.567,303.834 223.454,304.35 213.453,310.811 			"/>
			<polygon fill="#D8D9DB" points="195.833,283.488 213.453,310.811 223.454,304.35 205.833,277.028 			"/>
			<polygon fill="#BCBCBC" points="208.035,302.418 195.833,283.488 187.892,282.168 205.22,309.035 212.937,310.698 
				213.456,310.807 			"/>
		</g>
		<g>
			<polygon fill="#FCD68C" points="201.245,302.891 158.955,237.415 166.893,238.735 176.898,232.271 178.963,224.491 
				221.253,289.966 219.592,297.686 219.481,298.203 209.481,304.665 			"/>
			<polygon fill="#686868" points="161.315,216.264 161.848,214.234 155.828,210.625 156.64,217.601 158.708,217.946 			"/>
			
				<rect x="153.942" y="262.516" transform="matrix(-0.5426 -0.84 0.84 -0.5426 72.5005 576.4163)" fill="#FBBE48" width="78.489" height="11.906"/>
			<polygon fill="#FAAE1A" points="204.061,296.273 166.893,238.735 158.955,237.415 201.245,302.891 208.964,304.554 
				209.484,304.662 			"/>
			<polygon fill="#F4D8C3" points="161.855,214.24 161.32,216.262 158.708,217.946 156.64,217.601 158.955,237.415 166.893,238.735 
				176.898,232.271 178.963,224.491 			"/>
			<polygon fill="#EAC9AD" points="156.64,217.601 158.955,237.415 166.893,238.735 158.712,217.948 			"/>
			<polygon fill="#F4E1D4" points="161.855,214.24 161.319,216.267 176.898,232.271 178.963,224.491 			"/>
			<polygon fill="#4C4C4C" points="156.636,217.604 158.712,217.948 155.828,210.625 			"/>
			<polygon fill="#5B5B5B" points="158.709,217.945 161.319,216.263 155.829,210.623 			"/>
		</g>
	</g>
	<g>
		
			<rect x="672.805" y="290.163" transform="matrix(0.6422 -0.7666 0.7666 0.6422 18.6688 627.699)" fill="#EAEAEA" width="17.706" height="7.382"/>
		
			<rect x="674.221" y="293.195" transform="matrix(0.6423 -0.7665 0.7665 0.6423 18.2014 629.0817)" fill="#D6D6D6" width="17.705" height="3.691"/>
		
			<rect x="654.662" y="297.368" transform="matrix(0.7665 0.6423 -0.6423 0.7665 358.2783 -351.2555)" fill="#FFBA4D" width="15.068" height="39.437"/>
		
			<rect x="661.26" y="299.737" transform="matrix(0.7667 0.642 -0.642 0.7667 360.2439 -352.4218)" fill="#FAAE1A" width="7.534" height="39.438"/>
		<path fill="#FFFFFF" d="M668.274,298.097l1.652-1.969c1.171-1.397,3.252-1.581,4.651-0.411l6.486,5.437
			c1.398,1.171,1.583,3.254,0.411,4.649l-1.651,1.972L668.274,298.097z"/>
		<path fill="#FFFFFF" d="M644.393,326.604l-1.649,1.973c-1.171,1.396-0.988,3.477,0.409,4.648l6.488,5.437
			c1.399,1.17,3.48,0.986,4.652-0.411l1.651-1.969L644.393,326.604z"/>
		
			<rect x="680.177" y="289.954" transform="matrix(0.7666 0.6421 -0.6421 0.7666 346.6292 -371.1696)" fill="#D6D6D6" width="7.385" height="2.52"/>
		<path fill="#FFFFFF" d="M691.99,293.587c-1.205,1.438-3.346,1.629-4.784,0.422l-6.672-5.59c-1.438-1.205-1.627-3.346-0.424-4.784
			l1.483-1.771c1.205-1.437,3.348-1.625,4.784-0.422l6.676,5.592c1.438,1.205,1.625,3.346,0.422,4.784L691.99,293.587z"/>
		<path fill="#E0E0E0" d="M681.064,301.153l-3.233-2.713l-3.771,4.504l5.764,4.83l1.651-1.972
			C682.647,304.407,682.463,302.324,681.064,301.153z"/>
		<path fill="#E0E0E0" d="M687.279,294.07l-3.234-2.709l3.77-4.5l5.768,4.827l-1.651,1.971
			C690.76,295.057,688.676,295.242,687.279,294.07z"/>
		<path fill="#E0E0E0" d="M649.641,338.662l-3.234-2.711l3.771-4.502l5.768,4.833l-1.651,1.969
			C653.121,339.648,651.04,339.832,649.641,338.662z"/>
		<path fill="#D6D6D6" d="M688.331,285.89c-2.042-1.714-3.83-3.611-5.381-5.645l-2.535,3.026c1.549,2.035,3.339,3.934,5.38,5.645
			c2.043,1.711,4.227,3.139,6.498,4.31l2.539-3.028C692.559,289.028,690.375,287.601,688.331,285.89z"/>
		<path fill="#EAEAEA" d="M727.508,239.125c12.08,10.118,13.674,28.181,3.554,40.259c-10.118,12.079-28.179,13.672-40.257,3.554
			c-12.081-10.12-13.676-28.181-3.554-40.26C697.371,230.598,715.428,229.006,727.508,239.125 M731.643,234.189
			c-14.824-12.417-36.907-10.468-49.326,4.356c-12.42,14.823-10.47,36.908,4.354,49.327c14.824,12.418,36.907,10.47,49.326-4.354
			C748.416,268.692,746.467,246.609,731.643,234.189L731.643,234.189z"/>
		<path opacity="0.2" fill="#EAEAEA" d="M706.847,234.877c14.421-1.272,27.189,9.423,28.463,23.846
			c1.272,14.422-9.425,27.189-23.845,28.461c-14.423,1.274-27.19-9.423-28.463-23.844
			C681.73,248.917,692.426,236.149,706.847,234.877"/>
		<path opacity="0.25" fill="#EAEAEA" d="M706.847,234.875c14.421-1.271,27.189,9.424,28.462,23.845l-49.771-9.143
			C689.442,241.559,697.334,235.717,706.847,234.875"/>
	</g>
	<g>
		<path fill="#FFFFFF" d="M233.009,197.835c-0.583-1.469-0.807-3.936-0.499-5.483l2.01-10.128c0.306-1.547-0.31-3.771-1.369-4.944
			l-17.595-19.449c-1.06-1.168-1.45-0.926-0.869,0.54l7.578,19.09c0.151-0.017,0.301-0.03,0.456-0.022
			c1.595,0.084,2.819,1.447,2.734,3.041c-0.085,1.596-1.444,2.82-3.041,2.736c-1.595-0.085-2.819-1.446-2.735-3.04
			c0.049-0.935,0.544-1.732,1.26-2.225l-7.563-19.057c-0.583-1.466-1.037-1.375-1.003,0.201l0.535,26.223
			c0.032,1.578,1.11,3.619,2.396,4.533l8.407,5.993c1.284,0.919,2.814,2.867,3.396,4.333l1.342,3.38l1.149-0.455l1.146-0.454
			l1.311-0.521l1.145-0.454l1.147-0.457L233.009,197.835z"/>
		<g>
			<path fill="#EAEAEA" d="M223.697,182.978c-0.394,0.168-0.825,0.261-1.281,0.237c-1.595-0.085-2.819-1.446-2.735-3.04
				c0.049-0.935,0.544-1.732,1.26-2.225l-7.563-19.057c-0.583-1.466-1.037-1.375-1.003,0.201l0.535,26.223
				c0.032,1.578,1.11,3.619,2.396,4.533l8.407,5.993c1.284,0.919,2.814,2.867,3.396,4.333l1.342,3.38l1.149-0.455l1.146-0.454
				l0.655-0.262L223.697,182.978z"/>
		</g>
		<path fill="#FB7157" d="M236.754,229.652c-6.334-2.958-12.433-19.482-12.433-19.482c-1.548-3.902,0.359-8.316,4.259-9.864
			l1.725-0.685l1.724-0.683c3.897-1.549,8.313,0.356,9.86,4.257c0,0,6.899,16.208,4.313,22.707c0,0,4.088-0.627,6.835,8.874
			c0,0,1.34,4.082,3.257,11.361c1.965,7.475,8.693,28.039,11.372,40.144c0.553,2.479,1.513,6.699-0.058,7.319
			c-1.568,0.624-3.762-3.105-5.062-5.289c-6.352-10.646-15.561-30.223-19.257-37.01c-3.595-6.617-5.421-10.504-5.421-10.504
			C233.354,231.999,236.754,229.652,236.754,229.652z"/>
		<path fill="#EF6250" d="M236.754,229.652c-6.334-2.958-12.433-19.482-12.433-19.482c-1.548-3.902,0.359-8.316,4.259-9.864
			l1.725-0.685l37.304,93.979c-1.568,0.624-3.762-3.105-5.062-5.289c-6.352-10.646-15.561-30.223-19.257-37.01
			c-3.595-6.617-5.421-10.504-5.421-10.504C233.354,231.999,236.754,229.652,236.754,229.652z"/>
		<g>
			<path fill="#FFBA4D" d="M240.378,226.406l6.305-2.502c-0.088,0.732-0.246,1.407-0.481,1.998c0,0,1.018-0.154,2.378,0.865
				l-6.962,2.764L240.378,226.406z"/>
			<path fill="#FAAE1A" d="M236.754,229.652c-0.574-0.269-1.151-0.653-1.719-1.126l5.824-2.312l1.242,3.124l-6.479,2.574
				C235.911,230.235,236.754,229.652,236.754,229.652z"/>
		</g>
	</g>
	<g>
		<path fill="#515252" d="M428.947,329.655c-0.479,0.673-1.287,1.326-2.556,1.326c-2.058,0-3.695-1.672-3.695-4.281
			c0-2.516,1.673-4.376,3.676-4.376c1.099,0,1.908,0.559,2.349,1.015v-4.323h1.439v9.771v2.195h-1.22L428.947,329.655z
			 M428.721,328.708V324.6c-0.394-0.508-1.156-1.035-2.03-1.035c-1.542,0-2.528,1.354-2.528,3.089c0,1.762,1.09,3.055,2.538,3.055
			C427.48,329.708,428.234,329.295,428.721,328.708z"/>
		<path fill="#515252" d="M452.316,329.655c-0.479,0.673-1.288,1.326-2.557,1.326c-2.06,0-3.695-1.672-3.695-4.281
			c0-2.516,1.673-4.376,3.676-4.376c1.101,0,1.909,0.559,2.359,1.015v-4.323h1.43v9.771v2.195h-1.222L452.316,329.655z
			 M452.1,328.708V324.6c-0.403-0.508-1.164-1.035-2.039-1.035c-1.542,0-2.529,1.354-2.529,3.089c0,1.762,1.099,3.055,2.548,3.055
			C450.859,329.708,451.602,329.295,452.1,328.708z"/>
		<g>
			<g>
				<path fill="#515252" d="M434.606,323.585l3.638,2.277v0.65l-3.628,2.271l-0.507-0.804l2.941-1.797l-2.941-1.805L434.606,323.585
					z"/>
				<path fill="#515252" d="M443.058,327.979l-0.517,0.804l-3.619-2.271v-0.65l3.637-2.277l0.499,0.793l-2.943,1.805
					L443.058,327.979z"/>
			</g>
		</g>
	</g>
</g>
</svg>
