<?xml version="1.0" encoding="utf-8"?>
<!-- Generator: Adobe Illustrator 16.0.0, SVG Export Plug-In . SVG Version: 6.00 Build 0)  -->
<!DOCTYPE svg PUBLIC "-//W3C//DTD SVG 1.1//EN" "http://www.w3.org/Graphics/SVG/1.1/DTD/svg11.dtd">
<svg version="1.1" id="Layer_1" xmlns="http://www.w3.org/2000/svg" xmlns:xlink="http://www.w3.org/1999/xlink" x="0px" y="0px"
	 width="900px" height="500px" viewBox="0 0 900 500" enable-background="new 0 0 900 500" xml:space="preserve">
<rect fill="#3B3B3B" width="900" height="500.001"/>
<g>
	<g>
		<circle fill="#FB7157" cx="595.886" cy="62.034" r="30.196"/>
		<g>
			<defs>
				<circle id="SVGID_1_" cx="595.886" cy="62.034" r="30.196"/>
			</defs>
			<clipPath id="SVGID_2_">
				<use xlink:href="#SVGID_1_"  overflow="visible"/>
			</clipPath>
			<g clip-path="url(#SVGID_2_)">
				<path opacity="0.5" fill="#F45E4A" d="M610.609,35.672c6.43,5.538,10.506,13.733,10.506,22.884
					c0,16.678-13.52,30.198-30.195,30.198c-5.35,0-10.369-1.396-14.725-3.835c5.287,4.554,12.164,7.314,19.691,7.314
					c16.676,0,30.195-13.52,30.195-30.198C626.082,50.706,619.84,40.839,610.609,35.672z"/>
				<path fill="#F45E4A" d="M631.268,59.763h-13.176c-1.896,0-3.436-1.54-3.436-3.436c0-1.898,1.539-3.436,3.436-3.436h7.283
					c1.896,0,3.436-1.538,3.436-3.436c0-1.896-1.539-3.436-3.436-3.436h-32.184c-1.896,0-3.436,1.539-3.436,3.436
					c0,1.897,1.539,3.436,3.436,3.436h13.473c1.896,0,3.436,1.538,3.436,3.436c0,1.896-1.539,3.436-3.436,3.436h-1.686
					c-1.896,0-3.434,1.537-3.434,3.436c0,1.896,1.537,3.437,3.434,3.437h26.289c1.9,0,3.438-1.54,3.438-3.437
					C634.705,61.3,633.168,59.763,631.268,59.763z"/>
				<path fill="#F45E4A" d="M583.064,39.108h-13.178c-1.896,0-3.436-1.538-3.436-3.435c0-1.898,1.539-3.437,3.436-3.437h7.283
					c1.898,0,3.438-1.539,3.438-3.435c0-1.897-1.539-3.437-3.438-3.437h-32.184c-1.895,0-3.434,1.539-3.434,3.437
					c0,1.896,1.539,3.435,3.434,3.435h13.473c1.9,0,3.438,1.539,3.438,3.437c0,1.897-1.537,3.435-3.438,3.435h-1.684
					c-1.896,0-3.436,1.538-3.436,3.437c0,1.896,1.539,3.435,3.436,3.435h26.289c1.898,0,3.436-1.539,3.436-3.435
					C586.5,40.646,584.963,39.108,583.064,39.108z"/>
				<path fill="#F45E4A" d="M640.393,75.386h-60.328c-1.895,0-3.436-1.537-3.436-3.434c0-1.897,1.541-3.437,3.436-3.437h7.283
					c1.896,0,3.438-1.539,3.438-3.435c0-1.897-1.541-3.436-3.438-3.436h-32.182c-1.896,0-3.436,1.539-3.436,3.436
					c0,1.896,1.539,3.435,3.436,3.435h13.473c1.898,0,3.434,1.539,3.434,3.437c0,1.897-1.535,3.434-3.434,3.434h-1.686
					c-1.896,0-3.436,1.54-3.436,3.437c0,1.898,1.539,3.434,3.436,3.434h73.439c1.898,0,3.436-1.536,3.436-3.434
					C643.828,76.925,642.291,75.386,640.393,75.386z"/>
			</g>
		</g>
	</g>
	<g>
		<circle fill="#FFBA4D" cx="293.973" cy="201.669" r="19.488"/>
		<path opacity="0.1" d="M302.22,215.352c-10.763,0-19.488-8.725-19.488-19.488c0-4.759,1.708-9.117,4.541-12.501
			c-7.462,2.732-12.789,9.897-12.789,18.307c0,10.762,8.726,19.488,19.488,19.488c6.005,0,11.373-2.717,14.947-6.987
			C306.831,214.934,304.575,215.352,302.22,215.352z"/>
		<circle opacity="0.1" cx="303.081" cy="195.864" r="5.806"/>
		<path opacity="0.1" d="M299.558,197.329c0-3.206,2.599-5.806,5.805-5.806c0.669,0,1.309,0.119,1.907,0.328
			c-1.057-1.104-2.541-1.793-4.189-1.793c-3.206,0-5.806,2.599-5.806,5.805c0,2.537,1.63,4.688,3.898,5.478
			C300.174,200.3,299.558,198.888,299.558,197.329z"/>
		<circle opacity="0.1" cx="287.482" cy="190.059" r="2.013"/>
		<path opacity="0.1" d="M286.524,190.762c0-1.111,0.902-2.013,2.014-2.013c0.183,0,0.357,0.032,0.527,0.079
			c-0.369-0.473-0.938-0.783-1.583-0.783c-1.111,0-2.013,0.901-2.013,2.014c0,0.928,0.632,1.701,1.486,1.934
			C286.689,191.651,286.524,191.229,286.524,190.762z"/>
		<circle opacity="0.1" cx="304.008" cy="210.523" r="2.546"/>
		<path opacity="0.1" d="M302.796,211.414c0-1.406,1.14-2.546,2.546-2.546c0.232,0,0.453,0.041,0.666,0.099
			c-0.466-0.597-1.185-0.989-2.001-0.989c-1.406,0-2.546,1.14-2.546,2.545c0,1.174,0.799,2.151,1.879,2.446
			C303.005,212.539,302.796,212.003,302.796,211.414z"/>
		<circle opacity="0.1" cx="286.427" cy="206.83" r="3.694"/>
		<path opacity="0.1" d="M284.228,208.237c0-2.04,1.655-3.695,3.694-3.695c0.606,0,1.17,0.16,1.676,0.419
			c-0.643-1.089-1.815-1.827-3.171-1.827c-2.04,0-3.694,1.654-3.694,3.695c0,1.433,0.825,2.663,2.019,3.275
			C284.427,209.555,284.228,208.921,284.228,208.237z"/>
	</g>
	<path fill="#FFBA4D" d="M525.379,108.059c4.1,0,7.424-3.323,7.424-7.422c0,4.1,3.322,7.422,7.422,7.422
		c-4.1,0-7.422,3.323-7.422,7.423C532.803,111.381,529.479,108.059,525.379,108.059z"/>
	<path fill="#7CD2E0" d="M322.76,291.638c3.04,0,5.504-2.464,5.504-5.504c0,3.04,2.465,5.504,5.504,5.504
		c-3.04,0-5.504,2.464-5.504,5.505C328.264,294.102,325.8,291.638,322.76,291.638z"/>
	<circle fill="#FDEFA9" cx="353.085" cy="72.725" r="2.321"/>
	<circle fill="#FDEFA9" cx="566.776" cy="150.378" r="2.321"/>
	<circle fill="#FDEFA9" cx="579.049" cy="251.163" r="1.496"/>
	<circle fill="#FDEFA9" cx="273.917" cy="270.694" r="1.087"/>
	<circle fill="#FDEFA9" cx="626.083" cy="281.935" r="1.087"/>
	<circle fill="#FDEFA9" cx="322.76" cy="380.846" r="1.087"/>
	<circle fill="#FDEFA9" cx="603.604" cy="374.214" r="1.086"/>
	<circle fill="#FDEFA9" cx="541.311" cy="220.072" r="1.088"/>
	<circle fill="#FDEFA9" cx="550.562" cy="337.548" r="1.087"/>
	<circle fill="#FDEFA9" cx="289.065" cy="153.786" r="1.087"/>
	<circle fill="#FDEFA9" cx="389.452" cy="100.639" r="1.087"/>
	<circle fill="#FDEFA9" cx="532.802" cy="170" r="1.087"/>
	<circle fill="#FDEFA9" cx="598.983" cy="120.732" r="1.087"/>
	<circle fill="#FDEFA9" cx="361.865" cy="191.847" r="1.087"/>
	<circle fill="#FDEFA9" cx="341.542" cy="334.452" r="1.087"/>
	<circle fill="#FDEFA9" cx="333.769" cy="132.023" r="1.087"/>
	<g>
		<rect x="393.32" y="330.534" fill="#898989" width="9.969" height="14.03"/>
		<polygon fill="#9FA0A0" points="403.289,340.194 393.32,340.196 388.378,345.138 388.378,346.68 408.232,346.68 408.232,345.138 
					"/>
		<polygon opacity="0.15" points="403.289,340.194 403.289,330.534 398.305,330.534 398.304,346.68 408.232,346.68 408.232,345.138 
					"/>
	</g>
	<g>
		<rect x="499.797" y="330.534" fill="#898989" width="9.969" height="14.03"/>
		<polygon fill="#9FA0A0" points="509.766,340.194 499.797,340.196 494.855,345.138 494.855,346.68 514.709,346.68 514.709,345.138 
					"/>
		<polygon opacity="0.15" points="509.766,340.194 509.766,330.534 504.781,330.534 504.781,346.68 514.709,346.68 514.709,345.138 
					"/>
	</g>
	<path opacity="0.1" fill="#FFFFFF" d="M451.543,360.364h-34.476v7.704c0,0.976,0.791,1.768,1.767,1.768h30.942h1.767h1.767h30.942
		c0.975,0,1.766-0.792,1.766-1.768v-7.704H451.543z"/>
	<g>
		<path fill="#FB7157" d="M408.604,164.102c0-29.956-10.299-32.077-10.299-32.077s-10.302,2.121-10.302,32.077h0.005v170.354h20.6
			V164.102H408.604z"/>
		<rect x="388.008" y="320.531" fill="#7CD2E0" width="20.6" height="13.924"/>
		<rect x="388.003" y="164.102" fill="#FFFFFF" width="20.604" height="5.9"/>
		<rect x="388.003" y="221.873" fill="#FFFFFF" width="20.604" height="5.901"/>
		<rect x="388.003" y="236.863" fill="#FFFFFF" width="20.604" height="5.901"/>
		<path opacity="0.15" d="M408.604,164.102c0-29.956-10.299-32.077-10.299-32.077l0.003,202.431h10.3v-18.608V164.102H408.604z"/>
	</g>
	<g>
		<path fill="#FB7157" d="M515.078,164.102c0-29.956-10.299-32.077-10.299-32.077s-10.301,2.121-10.301,32.077h0.004v170.354h20.6
			V164.102H515.078z"/>
		<rect x="494.482" y="320.531" fill="#7CD2E0" width="20.6" height="13.924"/>
		<rect x="494.479" y="164.102" fill="#FFFFFF" width="20.604" height="5.9"/>
		<rect x="494.479" y="221.873" fill="#FFFFFF" width="20.604" height="5.901"/>
		<rect x="494.479" y="236.863" fill="#FFFFFF" width="20.604" height="5.901"/>
		<path opacity="0.15" d="M515.078,164.102c0-29.956-10.299-32.077-10.299-32.077l0.002,202.431h10.301v-18.608V164.102H515.078z"/>
	</g>
	<path fill="#F76A57" d="M451.543,311.174l-34.476,49.19v7.704c0,0.976,0.791,1.768,1.767,1.768h30.942h1.767h1.767h30.942
		c0.975,0,1.766-0.792,1.766-1.768v-7.704L451.543,311.174z"/>
	<path opacity="0.1" fill="#FFFFFF" d="M417.067,360.364v7.704c0,0.976,0.791,1.768,1.767,1.768h30.942h1.767v-9.472v-49.19
		L417.067,360.364z"/>
	<path fill="#D3D3D3" d="M409.634,213.274c-1.073,6.473-6.342,23.096-31.25,47.322c0,0-14.61,15.522-14.61,30.131v11.414h45.86
		V213.274z"/>
	<path fill="#7A7D84" d="M494.479,213.274c1.098,6.628,6.492,23.652,32.002,48.461c0,0,14.961,15.896,14.961,30.856v11.688h-46.963
		V213.274z"/>
	<path fill="#9FA0A0" d="M363.773,302.141v7.086c0,1.119,0.909,2.027,2.029,2.027h43.833v-9.113H363.773z"/>
	<path fill="#5C6168" d="M541.441,304.279v7.256c0,1.147-0.932,2.077-2.078,2.077h-44.887v-9.333H541.441z"/>
	<path fill="#EAEAEA" d="M494.475,223.005v-43.9c0,0,0.85-83.083-38.58-98.564c0,0-2.734-0.942-4.354-0.942
		c-1.623,0-4.359,0.942-4.359,0.942c-39.429,15.481-38.572,98.564-38.572,98.564v43.9v111.448h85.866V223.005z"/>
	<rect x="408.609" y="284.05" fill="#FFBA4D" width="85.87" height="50.403"/>
	<path opacity="0.15" d="M451.543,79.598c1.622,0,4.359,0.942,4.359,0.942c39.428,15.481,38.572,98.564,38.572,98.564v43.9v111.448
		h-42.932V79.598z"/>
	<circle fill="#FFFFFF" cx="451.542" cy="147.07" r="26.337"/>
	<circle fill="#7CD2E0" cx="451.543" cy="147.07" r="18.512"/>
	<path opacity="0.05" d="M451.542,120.733v52.673c14.546,0,26.337-11.791,26.337-26.336
		C477.879,132.524,466.088,120.733,451.542,120.733z"/>
	<path opacity="0.05" d="M451.542,132.32c9.589,0,17.474,7.291,18.417,16.63c0.062-0.618,0.096-1.246,0.096-1.88
		c0-10.226-8.289-18.513-18.513-18.513c-10.225,0-18.513,8.287-18.513,18.513c0,0.634,0.033,1.262,0.096,1.88
		C434.067,139.61,441.953,132.32,451.542,132.32z"/>
	<circle fill="#FDEFA9" cx="506.047" cy="78.166" r="1.266"/>
	<linearGradient id="SVGID_3_" gradientUnits="userSpaceOnUse" x1="398.3081" y1="350.7734" x2="398.3081" y2="519.6085">
		<stop  offset="0" style="stop-color:#F8E7B9"/>
		<stop  offset="1" style="stop-color:#FFBA4D"/>
	</linearGradient>
	<path fill="url(#SVGID_3_)" d="M446.791,438.796c0.768-1.629,1.209-3.442,1.209-5.361c0-6.966-5.648-12.613-12.613-12.613
		c-1.433,0-2.803,0.249-4.086,0.689c0.153-0.614,0.244-1.254,0.244-1.916c0-3.912-2.852-7.149-6.588-7.772
		c0.69-1.712,1.08-3.577,1.08-5.535c0-6.377-4.032-11.798-9.679-13.891c0.026-0.311,0.047-0.62,0.047-0.937
		c0-4.132-2.272-7.729-5.632-9.621c1.05-1.203,1.708-2.758,1.708-4.48c0-3.779-3.063-6.842-6.842-6.842V346.68h-7.331h-7.33v23.837
		c-3.779,0-6.842,3.062-6.842,6.842c0,1.723,0.658,3.277,1.708,4.48c-3.36,1.893-5.632,5.489-5.632,9.621
		c0,0.316,0.021,0.626,0.047,0.937c-5.646,2.093-9.678,7.514-9.678,13.891c0,1.958,0.388,3.823,1.079,5.535
		c-3.736,0.623-6.587,3.86-6.587,7.772c0,0.662,0.09,1.302,0.244,1.916c-1.283-0.44-2.653-0.689-4.086-0.689
		c-6.965,0-12.614,5.647-12.614,12.613c0,1.919,0.442,3.732,1.21,5.361c-6.771,1.374-11.866,7.359-11.866,14.534
		c0,8.191,6.64,14.832,14.833,14.832h45.516h45.517c8.193,0,14.833-6.641,14.833-14.832
		C458.658,446.155,453.562,440.17,446.791,438.796z"/>
	<linearGradient id="SVGID_4_" gradientUnits="userSpaceOnUse" x1="504.7812" y1="350.7734" x2="504.7812" y2="519.6085">
		<stop  offset="0" style="stop-color:#F8E7B9"/>
		<stop  offset="1" style="stop-color:#FFBA4D"/>
	</linearGradient>
	<path fill="url(#SVGID_4_)" d="M553.266,438.796c0.768-1.629,1.209-3.442,1.209-5.361c0-6.966-5.648-12.613-12.613-12.613
		c-1.434,0-2.803,0.249-4.088,0.689c0.152-0.614,0.244-1.254,0.244-1.916c0-3.912-2.852-7.149-6.588-7.772
		c0.691-1.712,1.08-3.577,1.08-5.535c0-6.377-4.031-11.798-9.678-13.891c0.025-0.311,0.047-0.62,0.047-0.937
		c0-4.132-2.273-7.729-5.631-9.621c1.049-1.203,1.707-2.758,1.707-4.48c0-3.779-3.064-6.842-6.844-6.842V346.68h-7.33h-7.33v23.837
		c-3.779,0-6.842,3.062-6.842,6.842c0,1.723,0.658,3.277,1.707,4.48c-3.359,1.893-5.633,5.489-5.633,9.621
		c0,0.316,0.023,0.626,0.049,0.937c-5.646,2.093-9.678,7.514-9.678,13.891c0,1.958,0.387,3.823,1.078,5.535
		c-3.736,0.623-6.588,3.86-6.588,7.772c0,0.662,0.09,1.302,0.244,1.916c-1.283-0.44-2.654-0.689-4.088-0.689
		c-6.963,0-12.613,5.647-12.613,12.613c0,1.919,0.442,3.732,1.211,5.361c-6.772,1.374-11.867,7.359-11.867,14.534
		c0,8.191,6.64,14.832,14.833,14.832h45.516h45.518c8.191,0,14.832-6.641,14.832-14.832
		C565.131,446.155,560.035,440.17,553.266,438.796z"/>
	<path fill="#FFBA4D" d="M534.496,468.162c0.434-0.984,0.676-2.07,0.676-3.213c0-4.424-3.586-8.012-8.01-8.012
		c-2.771,0-5.215,1.41-6.652,3.551c-1.422-6.104-6.883-10.656-13.418-10.656c-3.854,0-7.334,1.584-9.836,4.134
		c-2.008-4.003-5.238-7.277-9.213-9.331c-0.648-7.932-7.279-14.173-15.379-14.173c-8.531,0-15.445,6.915-15.445,15.443
		c0,1.431,0.211,2.809,0.574,4.122c-0.727-0.117-1.469-0.195-2.23-0.195c-4.493,0-8.473,2.16-10.99,5.486
		c-3.18-7.656-10.722-13.044-19.529-13.044c-8.976,0-16.627,5.604-19.694,13.495c-2.49-3.585-6.633-5.938-11.329-5.938
		c-5.697,0-10.586,3.457-12.689,8.387c-1.553-0.813-3.317-1.281-5.192-1.281c-6.194,0-11.215,5.022-11.215,11.216l0,0.005
		L534.496,468.162z"/>
	<path fill="#FBFBFB" d="M306.445,94.388c0,0-3.474,8.842-13.685,10.324h12.975c10.211-1.482,13.685-10.324,13.685-10.324H306.445z"
		/>
	<path fill="#FBFBFB" d="M588.52,281.933c0,0,2.826,7.194,11.135,8.4h-10.557c-8.311-1.206-11.137-8.4-11.137-8.4H588.52z"/>
	<path fill="#FBFBFB" d="M348.642,163.134l-7.099-1.63c0,0,1.398,9.27,4.538,9.463l7.1,1.63
		C350.04,172.402,348.642,163.134,348.642,163.134z"/>
	<path fill="#FBFBFB" d="M278.771,337.389l4.84-1.111c0,0-0.953,6.318-3.094,6.451l-4.839,1.111
		C277.818,343.707,278.771,337.389,278.771,337.389z"/>
	<path fill="#FBFBFB" d="M334.411,230.695c0,0-5.164,8.683-11.604,8.877l11.151,3.457c6.44-0.194,10.772-9.289,10.772-9.289
		L334.411,230.695z"/>
	<g>
		<path fill="#FBFBFB" d="M594.154,208.833c20.766,0,20.682-31.274,20.682-31.274l-29.287-3.64c0,0-1.908,29.749-19.844,31.274
			L594.154,208.833z"/>
		<g>
			<path fill="#9B9B9B" d="M592.529,181.749c-0.045,0.29-0.133,0.553-0.264,0.781c-0.131,0.226-0.295,0.411-0.494,0.562
				c-0.197,0.149-0.426,0.252-0.68,0.31c-0.258,0.061-0.533,0.068-0.83,0.025l-1.486-0.226l0.592-3.942l1.488,0.224
				c0.297,0.043,0.557,0.132,0.783,0.265c0.229,0.132,0.416,0.301,0.562,0.495c0.145,0.202,0.246,0.429,0.307,0.685
				C592.566,181.182,592.572,181.457,592.529,181.749z M591.875,181.652c0.035-0.228,0.035-0.434-0.002-0.626
				c-0.031-0.189-0.098-0.355-0.193-0.494c-0.094-0.144-0.219-0.259-0.371-0.35c-0.15-0.091-0.33-0.151-0.531-0.183l-0.846-0.128
				l-0.438,2.906l0.846,0.127c0.203,0.031,0.391,0.027,0.561-0.012c0.174-0.042,0.326-0.116,0.459-0.225
				c0.133-0.112,0.244-0.248,0.332-0.417C591.779,182.079,591.842,181.879,591.875,181.652z"/>
			<path fill="#9B9B9B" d="M595.984,180.252l-0.076,0.52l-1.814-0.274l-0.18,1.188l1.451,0.219l-0.078,0.498l-1.449-0.215
				l-0.182,1.217l1.818,0.272l-0.082,0.519l-2.457-0.37l0.592-3.94L595.984,180.252z"/>
			<path fill="#9B9B9B" d="M598.641,181.339c-0.025,0.035-0.051,0.056-0.074,0.065c-0.025,0.012-0.053,0.017-0.086,0.011
				s-0.07-0.025-0.109-0.06c-0.039-0.038-0.086-0.077-0.143-0.125c-0.061-0.045-0.129-0.086-0.211-0.129
				c-0.08-0.043-0.18-0.073-0.297-0.093c-0.111-0.017-0.209-0.018-0.295-0.002c-0.09,0.013-0.164,0.046-0.229,0.083
				c-0.064,0.04-0.115,0.095-0.152,0.156c-0.039,0.064-0.064,0.133-0.078,0.214c-0.014,0.096,0.002,0.183,0.043,0.26
				c0.043,0.073,0.105,0.141,0.184,0.203c0.08,0.06,0.174,0.118,0.281,0.167c0.104,0.054,0.211,0.11,0.32,0.168
				c0.111,0.057,0.219,0.121,0.322,0.186c0.104,0.069,0.191,0.15,0.268,0.238c0.074,0.091,0.129,0.199,0.164,0.321
				c0.037,0.12,0.043,0.264,0.018,0.423c-0.025,0.175-0.08,0.337-0.164,0.48c-0.082,0.146-0.189,0.264-0.32,0.358
				c-0.133,0.103-0.285,0.169-0.463,0.209c-0.178,0.041-0.371,0.043-0.586,0.013c-0.125-0.019-0.248-0.049-0.363-0.091
				c-0.115-0.045-0.223-0.099-0.326-0.157c-0.102-0.062-0.193-0.133-0.279-0.208c-0.086-0.078-0.158-0.162-0.223-0.25l0.232-0.279
				c0.02-0.026,0.043-0.041,0.07-0.052c0.029-0.013,0.059-0.015,0.088-0.009c0.043,0.006,0.088,0.031,0.133,0.078
				c0.045,0.047,0.1,0.101,0.166,0.158c0.064,0.057,0.145,0.113,0.24,0.168c0.098,0.054,0.217,0.092,0.357,0.11
				c0.234,0.036,0.42,0.009,0.564-0.086c0.143-0.094,0.23-0.24,0.26-0.44c0.018-0.115,0.006-0.203-0.037-0.285
				c-0.041-0.077-0.102-0.147-0.186-0.206c-0.076-0.06-0.17-0.117-0.277-0.166c-0.105-0.051-0.213-0.103-0.324-0.157
				c-0.109-0.055-0.215-0.116-0.318-0.184c-0.104-0.067-0.193-0.148-0.266-0.238c-0.076-0.095-0.131-0.206-0.164-0.335
				c-0.037-0.128-0.039-0.276-0.014-0.459c0.023-0.142,0.068-0.276,0.145-0.401c0.076-0.124,0.176-0.23,0.297-0.316
				c0.123-0.088,0.268-0.15,0.434-0.187c0.166-0.041,0.35-0.044,0.551-0.012c0.227,0.032,0.43,0.096,0.605,0.198
				c0.18,0.098,0.328,0.223,0.443,0.378L598.641,181.339z"/>
			<path fill="#9B9B9B" d="M599.715,184.846l-0.643-0.1l0.596-3.938l0.641,0.095L599.715,184.846z"/>
			<path fill="#9B9B9B" d="M602.504,185.31c-0.318-0.047-0.602-0.14-0.846-0.278c-0.24-0.138-0.441-0.311-0.598-0.518
				c-0.152-0.206-0.264-0.44-0.324-0.699c-0.061-0.26-0.072-0.539-0.027-0.836c0.045-0.298,0.135-0.561,0.266-0.796
				c0.133-0.232,0.299-0.425,0.504-0.575c0.203-0.153,0.438-0.257,0.703-0.317c0.264-0.059,0.553-0.066,0.865-0.018
				c0.158,0.025,0.305,0.06,0.436,0.104c0.133,0.045,0.254,0.095,0.363,0.158c0.111,0.059,0.211,0.129,0.299,0.208
				c0.092,0.076,0.17,0.161,0.24,0.248l-0.227,0.268c-0.035,0.04-0.078,0.061-0.127,0.066c-0.047,0.005-0.094-0.017-0.141-0.056
				s-0.1-0.079-0.152-0.122c-0.057-0.044-0.117-0.086-0.191-0.129c-0.072-0.043-0.156-0.08-0.252-0.114
				c-0.1-0.035-0.217-0.061-0.352-0.083c-0.209-0.031-0.402-0.024-0.58,0.019c-0.176,0.044-0.334,0.12-0.473,0.228
				c-0.137,0.112-0.25,0.25-0.342,0.419c-0.092,0.175-0.152,0.371-0.188,0.594c-0.035,0.231-0.031,0.451,0.008,0.646
				c0.037,0.194,0.111,0.363,0.215,0.512c0.105,0.146,0.24,0.267,0.406,0.365c0.166,0.091,0.359,0.155,0.576,0.189
				c0.16,0.021,0.307,0.025,0.441,0.009c0.129-0.016,0.262-0.044,0.393-0.087l0.119-0.784l-0.551-0.082
				c-0.041-0.007-0.072-0.024-0.094-0.05c-0.02-0.026-0.027-0.055-0.021-0.09l0.055-0.366l1.262,0.189l-0.234,1.559
				C603.5,185.316,603.023,185.387,602.504,185.31z"/>
			<path fill="#9B9B9B" d="M605.633,181.71c0.02,0.006,0.035,0.015,0.049,0.021c0.018,0.01,0.031,0.023,0.043,0.044
				c0.014,0.013,0.025,0.034,0.039,0.059l1.748,3.109c0.004-0.057,0.008-0.112,0.014-0.168c0.004-0.056,0.012-0.107,0.02-0.155
				l0.385-2.571l0.562,0.085l-0.594,3.941l-0.326-0.049c-0.049-0.007-0.09-0.021-0.121-0.046c-0.031-0.019-0.061-0.054-0.088-0.101
				l-1.744-3.104c-0.002,0.056-0.006,0.105-0.012,0.161c-0.004,0.05-0.012,0.098-0.018,0.143l-0.389,2.591l-0.564-0.084l0.592-3.944
				l0.334,0.051C605.59,181.698,605.613,181.703,605.633,181.71z"/>
			<path fill="#9B9B9B" d="M591.207,190.324c-0.318-0.045-0.6-0.138-0.844-0.275c-0.244-0.139-0.441-0.312-0.598-0.515
				c-0.156-0.206-0.264-0.441-0.326-0.702c-0.062-0.26-0.07-0.539-0.027-0.835c0.045-0.296,0.137-0.565,0.268-0.795
				c0.131-0.235,0.299-0.424,0.502-0.576c0.205-0.152,0.438-0.258,0.703-0.316c0.266-0.062,0.553-0.069,0.865-0.02
				c0.158,0.023,0.305,0.058,0.436,0.103c0.133,0.045,0.254,0.099,0.363,0.158c0.111,0.061,0.211,0.132,0.299,0.207
				c0.092,0.079,0.17,0.162,0.242,0.248l-0.229,0.269c-0.037,0.039-0.078,0.061-0.125,0.064c-0.049,0.008-0.094-0.013-0.145-0.052
				c-0.045-0.037-0.098-0.083-0.152-0.122c-0.055-0.044-0.115-0.088-0.188-0.131c-0.074-0.039-0.16-0.08-0.256-0.112
				c-0.098-0.035-0.215-0.064-0.352-0.083c-0.207-0.032-0.4-0.025-0.578,0.018c-0.176,0.043-0.334,0.118-0.471,0.227
				c-0.139,0.108-0.252,0.248-0.344,0.419c-0.09,0.172-0.152,0.37-0.188,0.592c-0.035,0.23-0.033,0.449,0.006,0.644
				c0.041,0.197,0.113,0.368,0.217,0.513c0.105,0.148,0.242,0.272,0.408,0.365c0.164,0.091,0.355,0.16,0.572,0.19
				c0.162,0.024,0.311,0.029,0.443,0.011c0.131-0.015,0.264-0.046,0.395-0.089l0.117-0.782l-0.551-0.085
				c-0.041-0.004-0.074-0.02-0.092-0.046c-0.021-0.03-0.027-0.059-0.023-0.095l0.055-0.365l1.264,0.193l-0.234,1.556
				C592.205,190.332,591.727,190.404,591.207,190.324z"/>
			<path fill="#9B9B9B" d="M594.971,190.319c0.154,0.021,0.291,0.02,0.42-0.015c0.127-0.033,0.238-0.093,0.334-0.168
				c0.1-0.08,0.18-0.183,0.242-0.301c0.062-0.125,0.105-0.263,0.127-0.418l0.359-2.376l0.637,0.094l-0.355,2.379
				c-0.035,0.229-0.105,0.44-0.209,0.625c-0.104,0.185-0.234,0.342-0.396,0.465c-0.158,0.12-0.344,0.208-0.555,0.26
				c-0.209,0.049-0.439,0.057-0.688,0.019c-0.248-0.038-0.463-0.111-0.648-0.221c-0.186-0.111-0.338-0.247-0.457-0.41
				c-0.115-0.168-0.197-0.352-0.24-0.562c-0.045-0.207-0.051-0.427-0.016-0.66l0.357-2.374l0.643,0.093l-0.357,2.376
				c-0.027,0.157-0.023,0.301,0,0.437c0.023,0.133,0.07,0.253,0.139,0.362c0.068,0.101,0.156,0.191,0.27,0.26
				C594.691,190.251,594.82,190.297,594.971,190.319z"/>
			<path fill="#9B9B9B" d="M598.031,191.309l-0.643-0.097l0.592-3.941l0.643,0.096L598.031,191.309z"/>
			<path fill="#9B9B9B" d="M602.721,190.001c-0.043,0.288-0.131,0.551-0.262,0.774c-0.133,0.229-0.297,0.416-0.494,0.563
				c-0.199,0.152-0.43,0.251-0.684,0.311c-0.256,0.06-0.531,0.069-0.828,0.021l-1.488-0.223l0.594-3.942l1.488,0.223
				c0.295,0.047,0.557,0.137,0.783,0.271c0.229,0.13,0.416,0.298,0.562,0.495c0.146,0.201,0.248,0.427,0.307,0.681
				C602.758,189.433,602.764,189.707,602.721,190.001z M602.066,189.9c0.035-0.228,0.035-0.434,0-0.624
				c-0.033-0.188-0.1-0.354-0.195-0.495c-0.096-0.142-0.219-0.26-0.369-0.349c-0.154-0.091-0.332-0.152-0.533-0.185l-0.844-0.125
				l-0.438,2.907l0.846,0.125c0.201,0.031,0.387,0.026,0.559-0.016c0.174-0.042,0.328-0.115,0.459-0.223
				c0.135-0.109,0.246-0.246,0.332-0.416C601.971,190.331,602.033,190.13,602.066,189.9z"/>
			<path fill="#9B9B9B" d="M606.178,188.502l-0.078,0.52l-1.814-0.274l-0.178,1.188l1.449,0.22l-0.074,0.499l-1.449-0.222
				l-0.186,1.221l1.82,0.274l-0.082,0.517l-2.457-0.368l0.592-3.942L606.178,188.502z"/>
		</g>
	</g>
</g>
</svg>
