<?xml version="1.0" encoding="utf-8"?>
<!-- Generator: Adobe Illustrator 16.0.0, SVG Export Plug-In . SVG Version: 6.00 Build 0)  -->
<!DOCTYPE svg PUBLIC "-//W3C//DTD SVG 1.1//EN" "http://www.w3.org/Graphics/SVG/1.1/DTD/svg11.dtd">
<svg version="1.1" id="Layer_1" xmlns="http://www.w3.org/2000/svg" xmlns:xlink="http://www.w3.org/1999/xlink" x="0px" y="0px"
	 width="900px" height="500px" viewBox="0 0 900 500" enable-background="new 0 0 900 500" xml:space="preserve">
<rect y="-4.5" fill="#66D1C9" width="900" height="509"/>
<g>
	<path fill="#FFBA4D" d="M576.439,236.091c0,0.352-0.285,0.637-0.638,0.637h-13.309c-0.353,0-0.638-0.285-0.638-0.637V215.73
		c0-0.352,0.285-0.637,0.638-0.637h13.309c0.353,0,0.638,0.285,0.638,0.637V236.091z"/>
	<path fill="#FB7157" d="M576.439,270.707c0,0.352-0.285,0.637-0.638,0.637h-13.309c-0.353,0-0.638-0.285-0.638-0.637v-20.361
		c0-0.352,0.285-0.637,0.638-0.637h13.309c0.353,0,0.638,0.285,0.638,0.637V270.707z"/>
	<g>
		<path fill="#FFFFFF" d="M471.857,173.762c0,4.87,3.946,8.827,8.825,8.827h136.927c4.875,0,8.83-3.957,8.83-8.827l0,0
			c0-4.877-3.955-8.824-8.83-8.824H480.684C475.805,164.938,471.857,168.885,471.857,173.762L471.857,173.762z"/>
		<path fill="#FFFFFF" d="M516.203,142.592c0,17.213,13.955,31.17,31.174,31.17c17.213,0,31.166-13.957,31.166-31.17
			c0-17.217-13.953-31.174-31.166-31.174C530.158,111.418,516.203,125.375,516.203,142.592z"/>
		<path fill="#FFFFFF" d="M484.012,151.52c0,12.771,10.353,23.131,23.127,23.131c12.775,0,23.129-10.359,23.129-23.131
			c0-12.777-10.354-23.123-23.129-23.123C494.364,128.397,484.012,138.742,484.012,151.52z"/>
		<circle fill="#FFFFFF" cx="587.651" cy="157.424" r="16.175"/>
		<circle fill="#FFFFFF" cx="573.595" cy="158.766" r="16.173"/>
	</g>
	<path fill="#F45A45" d="M353.705,153.121v-0.09c0-1.509,1.224-2.731,2.73-2.731h0.31c1.509,0,2.731,1.223,2.731,2.731v0.09"/>
	<g>
		<path fill="#FB7157" d="M647.695,196.829c1.52-3.631-0.195-7.81-3.824-9.327c-3.631-1.519-7.805,0.196-9.324,3.825l-5.572,13.326
			l13.146,5.5L647.695,196.829z"/>
		<path fill="#F77E6D" d="M645.787,211.687l-3.666-1.533l-13.146-5.5l-4.073-1.704c-1.121-0.467-2.406,0.058-2.873,1.178
			l-3.875,9.263c-0.468,1.116,0.061,2.401,1.178,2.869l3.227,1.349l15.043,6.292l2.619,1.097c1.117,0.467,2.404-0.06,2.871-1.175
			l3.873-9.265C647.432,213.44,646.904,212.153,645.787,211.687z"/>
		<g>
			<path fill="#EAEAEA" d="M630.965,229.673c-0.272-0.113-0.404-0.432-0.291-0.707c0.117-0.272,0.433-0.405,0.707-0.288l3.592,1.503
				l1.099-2.62l-3.595-1.501c-0.272-0.116-0.403-0.432-0.289-0.707c0.115-0.276,0.431-0.404,0.707-0.29l3.593,1.503l1.112-2.666
				l-15.043-6.292l-29.354,70.172c-0.779,1.862-0.978,4.241-0.592,6.467l-0.007-0.007c0,0,0.854,5.622-1.51,12.562
				c-0.588,1.402,0.078,3.019,1.482,3.606c1.403,0.585,3.018-0.076,3.604-1.48c3.279-6.553,7.883-9.896,7.883-9.896l-0.01,0.003
				c1.854-1.287,3.412-3.1,4.191-4.961l0.598-1.432l-3.592-1.502c-0.275-0.115-0.404-0.431-0.287-0.705
				c0.113-0.277,0.43-0.404,0.705-0.289l3.59,1.502l1.099-2.621l-3.593-1.502c-0.272-0.114-0.403-0.432-0.291-0.704
				c0.115-0.277,0.433-0.405,0.707-0.291l3.592,1.501l1.097-2.618l-3.594-1.503c-0.273-0.114-0.402-0.43-0.289-0.706
				c0.114-0.272,0.432-0.405,0.709-0.289l3.59,1.504l1.096-2.623l-6.524-2.729c-0.277-0.116-0.404-0.432-0.289-0.705
				c0.112-0.273,0.43-0.404,0.702-0.291l6.529,2.73l1.094-2.617l-3.592-1.504c-0.272-0.115-0.403-0.432-0.289-0.707
				c0.115-0.273,0.435-0.403,0.707-0.287l3.59,1.498l1.097-2.617l-3.59-1.502c-0.275-0.113-0.406-0.432-0.291-0.705
				c0.114-0.276,0.434-0.405,0.706-0.289l3.593,1.499l1.096-2.617l-3.592-1.503c-0.275-0.115-0.406-0.43-0.291-0.707
				c0.117-0.273,0.434-0.404,0.709-0.288l3.592,1.502l1.094-2.62l-6.526-2.73c-0.273-0.113-0.402-0.43-0.287-0.707
				c0.114-0.273,0.432-0.402,0.705-0.288l6.524,2.729l1.099-2.621l-3.595-1.5c-0.274-0.117-0.401-0.432-0.289-0.707
				c0.117-0.274,0.433-0.404,0.707-0.289l3.593,1.5l1.096-2.619l-3.59-1.502c-0.277-0.114-0.406-0.43-0.291-0.707
				c0.114-0.272,0.432-0.402,0.705-0.287l3.592,1.502l1.096-2.621l-3.59-1.501c-0.275-0.113-0.404-0.431-0.291-0.707
				c0.115-0.272,0.432-0.405,0.707-0.287l3.59,1.5l1.098-2.619l-6.526-2.731c-0.275-0.114-0.406-0.431-0.291-0.707
				c0.117-0.273,0.432-0.403,0.707-0.287l6.524,2.728l1.101-2.619l-3.594-1.501c-0.273-0.114-0.404-0.433-0.289-0.705
				c0.114-0.276,0.432-0.405,0.705-0.29l3.594,1.5l1.094-2.619l-3.59-1.5c-0.277-0.116-0.406-0.431-0.289-0.707
				c0.113-0.275,0.43-0.405,0.703-0.29l3.592,1.503l1.098-2.622l-3.592-1.502c-0.277-0.113-0.406-0.43-0.289-0.704
				c0.115-0.278,0.433-0.405,0.705-0.292l3.592,1.505l1.095-2.622l-6.324-2.646c-0.275-0.114-0.404-0.432-0.289-0.706
				c0.115-0.273,0.432-0.402,0.707-0.288l6.326,2.646l1.094-2.622l-3.59-1.498c-0.277-0.117-0.404-0.434-0.289-0.709
				c0.114-0.274,0.43-0.406,0.705-0.288l3.59,1.501l1.098-2.621L630.965,229.673z"/>
			<path fill="#B4B4B5" d="M632.188,225.353c-0.114,0.275,0.017,0.591,0.289,0.707l3.595,1.501l0.416-0.995l-3.593-1.503
				C632.617,224.948,632.303,225.076,632.188,225.353z"/>
			<path fill="#B4B4B5" d="M630.674,228.966c-0.113,0.275,0.019,0.594,0.291,0.707l3.592,1.502l0.416-0.994l-3.592-1.503
				C631.105,228.561,630.791,228.693,630.674,228.966z"/>
			<path fill="#B4B4B5" d="M629.164,232.583c-0.115,0.275,0.012,0.592,0.289,0.709l3.59,1.498l0.416-0.994l-3.59-1.501
				C629.594,232.177,629.279,232.309,629.164,232.583z"/>
			<path fill="#B4B4B5" d="M624.916,235.054c-0.115,0.274,0.014,0.592,0.289,0.706l6.324,2.646l0.42-0.994l-6.326-2.646
				C625.348,234.651,625.031,234.78,624.916,235.054z"/>
			<path fill="#B4B4B5" d="M626.139,239.815c-0.117,0.274,0.013,0.591,0.289,0.704l3.592,1.502l0.416-0.993l-3.592-1.505
				C626.57,239.41,626.254,239.537,626.139,239.815z"/>
			<path fill="#B4B4B5" d="M624.627,243.431c-0.117,0.276,0.012,0.591,0.289,0.707l3.59,1.5l0.416-0.994l-3.592-1.503
				C625.057,243.025,624.74,243.155,624.627,243.431z"/>
			<path fill="#B4B4B5" d="M623.113,247.047c-0.115,0.272,0.016,0.591,0.289,0.705l3.594,1.501l0.416-0.996l-3.594-1.5
				C623.545,246.642,623.229,246.771,623.113,247.047z"/>
			<path fill="#B4B4B5" d="M618.664,249.432c-0.115,0.276,0.016,0.593,0.291,0.707l6.527,2.731l0.414-0.998l-6.525-2.728
				C619.096,249.028,618.781,249.158,618.664,249.432z"/>
			<path fill="#B4B4B5" d="M620.088,254.275c-0.113,0.276,0.016,0.595,0.291,0.707l3.59,1.502l0.416-0.995l-3.59-1.5
				C620.52,253.871,620.203,254.003,620.088,254.275z"/>
			<path fill="#B4B4B5" d="M618.576,257.893c-0.115,0.276,0.014,0.592,0.291,0.707l3.59,1.502l0.416-0.996l-3.592-1.502
				C619.008,257.488,618.691,257.618,618.576,257.893z"/>
			<path fill="#B4B4B5" d="M617.062,261.509c-0.113,0.275,0.014,0.589,0.288,0.706l3.595,1.501l0.416-0.995l-3.592-1.5
				C617.494,261.104,617.18,261.232,617.062,261.509z"/>
			<path fill="#B4B4B5" d="M612.617,263.895c-0.115,0.277,0.014,0.594,0.287,0.709l6.526,2.729l0.416-0.996l-6.524-2.729
				C613.049,263.492,612.732,263.621,612.617,263.895z"/>
			<path fill="#B4B4B5" d="M614.037,268.739c-0.115,0.276,0.016,0.592,0.291,0.706l3.592,1.504l0.418-0.996l-3.592-1.502
				C614.471,268.335,614.154,268.465,614.037,268.739z"/>
			<path fill="#B4B4B5" d="M612.525,272.355c-0.115,0.274,0.016,0.593,0.291,0.705l3.59,1.502l0.418-0.996l-3.592-1.5
				C612.959,271.951,612.641,272.08,612.525,272.355z"/>
			<path fill="#B4B4B5" d="M611.014,275.971c-0.114,0.275,0.017,0.592,0.289,0.706l3.592,1.505l0.416-1l-3.59-1.498
				C611.447,275.566,611.129,275.695,611.014,275.971z"/>
			<path fill="#B4B4B5" d="M606.568,278.357c-0.115,0.273,0.012,0.59,0.289,0.707l6.524,2.729l0.418-0.996l-6.528-2.73
				C606.998,277.954,606.682,278.085,606.568,278.357z"/>
			<path fill="#B4B4B5" d="M607.988,283.202c-0.113,0.276,0.016,0.592,0.289,0.706l3.594,1.503l0.416-0.994l-3.59-1.504
				C608.42,282.797,608.104,282.93,607.988,283.202z"/>
			<path fill="#B4B4B5" d="M606.477,286.818c-0.112,0.272,0.019,0.591,0.291,0.705l3.593,1.502l0.416-0.996l-3.593-1.502
				C606.908,286.414,606.592,286.542,606.477,286.818z"/>
			<path fill="#B4B4B5" d="M604.967,290.434c-0.117,0.275,0.012,0.592,0.287,0.707l3.592,1.502l0.416-0.996l-3.59-1.5
				C605.396,290.029,605.08,290.156,604.967,290.434z"/>
		</g>
		<path fill="#FFFFFF" d="M599.514,289.236c-0.387,0.924-1.448,1.357-2.369,0.975l0,0c-0.924-0.387-1.358-1.447-0.973-2.371
			l26.91-64.333c0.387-0.923,1.447-1.358,2.367-0.97l0,0c0.924,0.384,1.358,1.441,0.975,2.366L599.514,289.236z"/>
	</g>
	<g>
		<path fill="#FFFFFF" d="M322.435,256.079c0,2.821-2.287,5.116-5.115,5.116h-79.368c-2.827,0-5.118-2.295-5.118-5.116l0,0
			c0-2.826,2.291-5.115,5.118-5.115h79.368C320.147,250.964,322.435,253.253,322.435,256.079L322.435,256.079z"/>
		<circle fill="#FFFFFF" cx="278.662" cy="238.011" r="18.067"/>
		<circle fill="#FFFFFF" cx="301.983" cy="243.187" r="13.406"/>
		<circle fill="#FFFFFF" cx="255.316" cy="246.608" r="9.375"/>
		<circle fill="#FFFFFF" cx="263.464" cy="247.386" r="9.375"/>
	</g>
	<ellipse opacity="0.05" enable-background="new    " cx="439.312" cy="370.938" rx="103.645" ry="17.643"/>
	<path fill="#C6C3C3" d="M405.648,246.032c0-2.393,1.937-4.328,4.326-4.328h58.676c2.393,0,4.33,1.936,4.33,4.328v115.164
		c0,2.393-1.938,4.328-4.33,4.328h-58.676c-2.391,0-4.326-1.937-4.326-4.328V246.032z"/>
	<polygon fill="#EAEAE9" points="492.209,370.938 492.209,370.938 386.413,370.938 386.413,370.938 386.413,360.118 
		386.413,360.118 492.209,360.118 492.209,360.118 	"/>
	<path fill="#515252" d="M556.166,152.136H322.458c-7.173,0-12.984,5.812-12.984,12.984v138.494h259.675V165.12
		C569.148,157.948,563.342,152.136,556.166,152.136z"/>
	<path fill="#F7F7F7" d="M551.965,282.538c0,2.387-1.938,4.325-4.328,4.325H331.554c-2.389,0-4.328-1.938-4.328-4.325V174.495
		c0-2.393,1.939-4.329,4.328-4.329h216.083c2.392,0,4.328,1.937,4.328,4.329V282.538L551.965,282.538z"/>
	<path fill="#EAEAE9" d="M309.474,303.614v14.67c0,7.174,5.812,12.983,12.984,12.983h233.708c7.176,0,12.982-5.811,12.982-12.983
		v-14.67H309.474z"/>
	<path fill="#FB7157" d="M356.66,150.3h-18.786h-0.308c-1.508,0-2.731,1.223-2.731,2.731v0.09v50.109l9.47-10.705l9.471,10.705
		v-50.109v-0.09c0-1.509,1.223-2.731,2.731-2.731h0.308"/>
	<g>
		<path fill="#DDDDDD" d="M518.053,278.143c0,1.655-1.348,3.004-3.008,3.004H364.142c-1.66,0-3.004-1.349-3.004-3.004v-99.254
			c0-1.656,1.344-3.004,3.004-3.004h150.903c1.66,0,3.008,1.348,3.008,3.004V278.143z"/>
		<rect x="365.634" y="192.651" fill="#565959" width="147.925" height="84.102"/>
		<g>
			<circle fill="#F96C4B" cx="367.973" cy="183.808" r="2.339"/>
			<circle fill="#FFBD4F" cx="376.436" cy="183.808" r="2.339"/>
			<circle fill="#00C958" cx="384.9" cy="183.808" r="2.34"/>
		</g>
		<rect x="392.9" y="180.804" fill="#FFFFFF" width="107.195" height="6.008"/>
		<g>
			<path fill="#B2B2B2" d="M513.559,181.669c0,0.26-0.211,0.469-0.471,0.469h-7.094c-0.258,0-0.467-0.209-0.467-0.469l0,0
				c0-0.258,0.209-0.469,0.467-0.469h7.094C513.348,181.2,513.559,181.411,513.559,181.669L513.559,181.669z"/>
			<path fill="#B2B2B2" d="M513.559,185.946c0,0.258-0.211,0.469-0.471,0.469h-7.094c-0.258,0-0.467-0.211-0.467-0.469l0,0
				c0-0.26,0.209-0.471,0.467-0.471h7.094C513.348,185.476,513.559,185.687,513.559,185.946L513.559,185.946z"/>
			<path fill="#B2B2B2" d="M513.559,183.808c0,0.258-0.211,0.469-0.471,0.469h-7.094c-0.258,0-0.467-0.211-0.467-0.469l0,0
				c0-0.26,0.209-0.469,0.467-0.469h7.094C513.348,183.339,513.559,183.548,513.559,183.808L513.559,183.808z"/>
		</g>
		<g>
			<rect x="378.181" y="201.104" fill="#00B79C" width="43.583" height="2.02"/>
			<rect x="378.181" y="245.503" fill="#00B79C" width="43.583" height="2.02"/>
			<rect x="387.575" y="206.036" fill="#00B79C" width="54.668" height="2.021"/>
			<rect x="387.575" y="225.771" fill="#00B79C" width="54.668" height="2.02"/>
			<rect x="387.575" y="240.569" fill="#00B79C" width="54.668" height="2.02"/>
			<rect x="395.645" y="230.704" fill="#00B79C" width="35.832" height="2.02"/>
			<rect x="395.645" y="235.636" fill="#00B79C" width="35.832" height="2.021"/>
			<rect x="393.459" y="210.97" fill="#00B79C" width="54.668" height="2.021"/>
			<rect x="393.459" y="215.903" fill="#00B79C" width="52.237" height="2.021"/>
			<rect x="393.459" y="220.837" fill="#00B79C" width="52.237" height="2.02"/>
		</g>
		<rect x="365.634" y="256.402" fill="#3F4243" width="147.925" height="20.351"/>
	</g>
	<g>
		<g>
			<circle id="SVGID_1_" fill="#404243" cx="439.312" cy="160.771" r="1.197"/>
		</g>
		<g>
			<defs>
				<circle id="SVGID_2_" cx="439.312" cy="160.771" r="1.197"/>
			</defs>
			<clipPath id="SVGID_3_">
				<use xlink:href="#SVGID_2_"  overflow="visible"/>
			</clipPath>
			<circle clip-path="url(#SVGID_3_)" fill="#585D60" cx="439.617" cy="160.535" r="1.197"/>
		</g>
	</g>
	<text transform="matrix(1 0 0 1 367.2988 202.7871)" fill="#6C6D6D" font-family="'Lato-Semibold'" font-size="2">1</text>
	<text transform="matrix(1 0 0 1 367.2988 207.6875)" fill="#6C6D6D" font-family="'Lato-Semibold'" font-size="2">2</text>
	<text transform="matrix(1 0 0 1 367.2988 212.5869)" fill="#6C6D6D" font-family="'Lato-Semibold'" font-size="2">3</text>
	<text transform="matrix(1 0 0 1 367.2988 217.4873)" fill="#6C6D6D" font-family="'Lato-Semibold'" font-size="2">4</text>
	<text transform="matrix(1 0 0 1 367.2988 222.3867)" fill="#6C6D6D" font-family="'Lato-Semibold'" font-size="2">5</text>
	<text transform="matrix(1 0 0 1 367.2988 227.2871)" fill="#6C6D6D" font-family="'Lato-Semibold'" font-size="2">6</text>
	<text transform="matrix(1 0 0 1 367.2988 232.1875)" fill="#6C6D6D" font-family="'Lato-Semibold'" font-size="2">7</text>
	<text transform="matrix(1 0 0 1 367.2988 237.0869)" fill="#6C6D6D" font-family="'Lato-Semibold'" font-size="2">8</text>
	<text transform="matrix(1 0 0 1 367.2988 241.9873)" fill="#6C6D6D" font-family="'Lato-Semibold'" font-size="2">9</text>
	<text transform="matrix(1 0 0 1 366.7686 246.8867)" fill="#6C6D6D" font-family="'Lato-Semibold'" font-size="2">10</text>
	<rect x="370.262" y="192.651" fill="#6C6D6D" width="0.1" height="63.751"/>
	<rect x="365.634" y="192.651" fill="#6C6D6D" width="4.728" height="63.751"/>
	<g>
		<g>
			<polygon fill="#F77E6D" points="235.307,311.477 219.726,287.316 226.866,288.505 235.862,282.691 237.719,275.695 
				253.298,299.855 251.804,306.799 251.706,307.264 242.713,313.073 			"/>
			<polygon fill="#FB7157" points="226.866,288.505 242.713,313.073 251.706,307.264 235.859,282.695 			"/>
			<polygon fill="#EF6250" points="237.839,305.527 226.866,288.505 219.726,287.316 235.307,311.477 242.248,312.972 
				242.714,313.068 			"/>
		</g>
		<g>
			<polygon fill="#F4F5F5" points="229.882,303.086 214.3,278.925 221.44,280.113 230.438,274.302 232.292,267.305 247.873,291.464 
				246.38,298.408 246.278,298.873 237.285,304.684 			"/>
			<polygon fill="#D8D9DB" points="221.44,280.113 237.285,304.684 246.278,298.873 230.433,274.305 			"/>
			<polygon fill="#BCBCBC" points="232.413,297.136 221.44,280.113 214.3,278.925 229.882,303.086 236.821,304.581 237.288,304.68 
							"/>
		</g>
		<g>
			<polygon fill="#FCD68C" points="226.308,297.561 188.278,238.682 195.416,239.869 204.413,234.057 206.271,227.061 
				244.3,285.938 242.806,292.88 242.706,293.346 233.714,299.157 			"/>
			<polygon fill="#686868" points="190.4,219.662 190.88,217.837 185.466,214.591 186.196,220.864 188.056,221.175 			"/>
			
				<rect x="183.773" y="261.252" transform="matrix(0.5426 0.84 -0.84 0.5426 324.1464 -62.0662)" fill="#FBBE48" width="70.582" height="10.707"/>
			<polygon fill="#FAAE1A" points="228.839,291.609 195.416,239.869 188.278,238.682 226.308,297.561 233.248,299.057 
				233.716,299.152 			"/>
			<polygon fill="#F4D8C3" points="190.886,217.842 190.405,219.66 188.056,221.175 186.196,220.864 188.278,238.682 
				195.416,239.869 204.413,234.057 206.271,227.061 			"/>
			<polygon fill="#EAC9AD" points="186.196,220.864 188.278,238.682 195.416,239.869 188.06,221.177 			"/>
			<polygon fill="#F4E1D4" points="190.886,217.842 190.403,219.665 204.413,234.057 206.271,227.061 			"/>
			<polygon fill="#4C4C4C" points="186.192,220.867 188.06,221.177 185.466,214.591 			"/>
			<polygon fill="#5B5B5B" points="188.058,221.174 190.403,219.661 185.467,214.589 			"/>
		</g>
	</g>
	<g>
		
			<rect x="650.347" y="286.136" transform="matrix(-0.6422 0.7665 -0.7665 -0.6422 1302.9656 -29.2443)" fill="#EAEAEA" width="15.92" height="6.64"/>
		
			<rect x="651.659" y="288.822" transform="matrix(-0.6421 0.7666 -0.7666 -0.6421 1305.8732 -28.6367)" fill="#D6D6D6" width="15.924" height="3.32"/>
		
			<rect x="634.026" y="292.578" transform="matrix(-0.7665 -0.6422 0.6422 -0.7665 932.71 959.7004)" fill="#FFBA4D" width="13.55" height="35.464"/>
		
			<rect x="639.948" y="294.726" transform="matrix(-0.7666 -0.6421 0.6421 -0.7666 935.9149 965.0727)" fill="#FAAE1A" width="6.774" height="35.463"/>
		<path fill="#FFFFFF" d="M646.283,293.25l1.483-1.771c1.056-1.258,2.927-1.422,4.185-0.369l5.834,4.889
			c1.258,1.053,1.424,2.926,0.369,4.182l-1.484,1.772L646.283,293.25z"/>
		<path fill="#FFFFFF" d="M624.807,318.885l-1.481,1.773c-1.056,1.256-0.89,3.127,0.367,4.181l5.836,4.89
			c1.258,1.053,3.129,0.887,4.182-0.369l1.486-1.771L624.807,318.885z"/>
		
			<rect x="656.994" y="285.901" transform="matrix(-0.7666 -0.6421 0.6421 -0.7666 982.1774 931.0879)" fill="#D6D6D6" width="6.64" height="2.266"/>
		<path fill="#FFFFFF" d="M667.611,289.193c-1.084,1.295-3.011,1.465-4.304,0.381l-6.002-5.028
			c-1.293-1.082-1.463-3.008-0.379-4.301l1.334-1.595c1.084-1.291,3.008-1.461,4.304-0.379l6,5.027
			c1.295,1.084,1.463,3.01,0.381,4.303L667.611,289.193z"/>
		<path fill="#E0E0E0" d="M657.785,295.998l-2.908-2.438l-3.391,4.049l5.184,4.344l1.484-1.771
			C659.209,298.924,659.043,297.051,657.785,295.998z"/>
		<path fill="#E0E0E0" d="M663.373,289.63l-2.908-2.438l3.391-4.047l5.187,4.342l-1.484,1.771
			C666.504,290.518,664.631,290.684,663.373,289.63z"/>
		<path fill="#E0E0E0" d="M629.527,329.728l-2.908-2.437l3.389-4.05l5.188,4.346l-1.486,1.771
			C632.656,330.614,630.785,330.78,629.527,329.728z"/>
		<path fill="#D6D6D6" d="M664.318,282.271c-1.836-1.541-3.443-3.246-4.838-5.076l-2.281,2.724c1.395,1.829,3.002,3.536,4.84,5.075
			c1.836,1.538,3.799,2.822,5.844,3.875l2.283-2.723C668.121,285.096,666.158,283.811,664.318,282.271z"/>
		<path fill="#EAEAEA" d="M699.549,240.22c10.863,9.1,12.297,25.34,3.197,36.202s-25.342,12.295-36.203,3.196
			c-10.863-9.103-12.297-25.343-3.195-36.204C672.447,232.552,688.688,231.12,699.549,240.22 M703.268,235.781
			c-13.33-11.166-33.188-9.413-44.356,3.917c-11.168,13.329-9.414,33.188,3.916,44.356c13.33,11.166,33.188,9.414,44.354-3.916
			C718.35,266.809,716.598,246.95,703.268,235.781L703.268,235.781z"/>
		<path opacity="0.2" fill="#EAEAEA" enable-background="new    " d="M680.969,236.399c12.969-1.144,24.449,8.475,25.597,21.443
			c1.145,12.969-8.476,24.449-21.441,25.594c-12.971,1.146-24.451-8.474-25.596-21.441
			C658.383,249.026,668.002,237.544,680.969,236.399"/>
		<path opacity="0.25" fill="#EAEAEA" enable-background="new    " d="M680.969,236.398c12.969-1.143,24.449,8.475,25.594,21.443
			l-44.756-8.223C665.318,242.408,672.416,237.155,680.969,236.398"/>
	</g>
	<g>
		<path fill="#FFFFFF" d="M254.871,203.09c-0.524-1.32-0.726-3.539-0.448-4.931l1.807-9.107c0.275-1.392-0.278-3.392-1.23-4.446
			l-15.822-17.489c-0.953-1.051-1.304-0.833-0.781,0.485l6.814,17.167c0.136-0.016,0.271-0.027,0.41-0.021
			c1.435,0.076,2.535,1.302,2.459,2.734c-0.076,1.435-1.299,2.536-2.734,2.46c-1.435-0.076-2.535-1.3-2.459-2.733
			c0.044-0.841,0.489-1.558,1.133-2.001l-6.802-17.137c-0.524-1.318-0.933-1.236-0.902,0.181l0.48,23.581
			c0.029,1.419,0.999,3.254,2.155,4.076l7.561,5.389c1.154,0.826,2.53,2.578,3.054,3.896l1.207,3.04l1.033-0.409l1.031-0.408
			l1.179-0.469l1.029-0.408l1.032-0.411L254.871,203.09z"/>
		<g>
			<path fill="#EAEAEA" d="M246.497,189.729c-0.354,0.151-0.742,0.234-1.152,0.213c-1.435-0.076-2.535-1.3-2.459-2.733
				c0.044-0.841,0.489-1.558,1.133-2.001l-6.802-17.137c-0.524-1.318-0.933-1.236-0.902,0.181l0.48,23.581
				c0.029,1.419,0.999,3.254,2.155,4.076l7.561,5.389c1.154,0.826,2.53,2.578,3.054,3.896l1.207,3.04l1.033-0.409l1.031-0.408
				l0.589-0.235L246.497,189.729z"/>
		</g>
		<path fill="#FB7157" d="M258.239,231.701c-5.696-2.66-11.181-17.52-11.181-17.52c-1.392-3.509,0.323-7.479,3.83-8.87l1.551-0.616
			l1.55-0.614c3.505-1.393,7.476,0.32,8.867,3.828c0,0,6.204,14.575,3.879,20.419c0,0,3.676-0.563,6.146,7.98
			c0,0,1.205,3.67,2.93,10.216c1.767,6.722,7.816,25.212,10.226,36.099c0.497,2.229,1.36,6.023-0.052,6.583
			c-1.41,0.562-3.383-2.793-4.552-4.757c-5.712-9.573-13.993-27.18-17.316-33.281c-3.233-5.949-4.875-9.445-4.875-9.445
			C255.182,233.812,258.239,231.701,258.239,231.701z"/>
		<path fill="#EF6250" d="M258.239,231.701c-5.696-2.66-11.181-17.52-11.181-17.52c-1.392-3.509,0.323-7.479,3.83-8.87l1.551-0.616
			l33.546,84.511c-1.41,0.562-3.383-2.793-4.552-4.757c-5.712-9.573-13.993-27.18-17.316-33.281
			c-3.233-5.949-4.875-9.445-4.875-9.445C255.182,233.812,258.239,231.701,258.239,231.701z"/>
		<g>
			<path fill="#FFBA4D" d="M261.498,228.782l5.67-2.251c-0.079,0.659-0.221,1.266-0.433,1.797c0,0,0.915-0.139,2.139,0.778
				l-6.261,2.485L261.498,228.782z"/>
			<path fill="#FAAE1A" d="M258.239,231.701c-0.517-0.242-1.035-0.588-1.546-1.013l5.237-2.079l1.116,2.81l-5.826,2.314
				C257.48,232.226,258.239,231.701,258.239,231.701z"/>
		</g>
	</g>
	<g>
		<path fill="#515252" d="M431.068,321.629c-0.432,0.605-1.157,1.192-2.3,1.192c-1.851,0-3.321-1.503-3.321-3.851
			c0-2.262,1.505-3.936,3.306-3.936c0.988,0,1.716,0.503,2.112,0.913v-3.889h1.294v8.786v1.975h-1.099L431.068,321.629z
			 M430.865,320.776v-3.694c-0.354-0.456-1.04-0.93-1.825-0.93c-1.387,0-2.273,1.217-2.273,2.776c0,1.584,0.98,2.746,2.282,2.746
			C429.749,321.676,430.427,321.305,430.865,320.776z"/>
		<path fill="#515252" d="M452.084,321.629c-0.432,0.605-1.159,1.192-2.3,1.192c-1.854,0-3.323-1.503-3.323-3.851
			c0-2.262,1.505-3.936,3.306-3.936c0.989,0,1.717,0.503,2.122,0.913v-3.889h1.285v8.786v1.975h-1.098L452.084,321.629z
			 M451.889,320.776v-3.694c-0.362-0.456-1.048-0.93-1.834-0.93c-1.387,0-2.273,1.217-2.273,2.776c0,1.584,0.987,2.746,2.291,2.746
			C450.772,321.676,451.44,321.305,451.889,320.776z"/>
		<g>
			<g>
				<path fill="#515252" d="M436.157,316.17l3.271,2.049v0.584l-3.263,2.041l-0.456-0.723l2.645-1.615l-2.645-1.623L436.157,316.17z
					"/>
				<path fill="#515252" d="M443.757,320.121l-0.465,0.723l-3.254-2.041v-0.584l3.271-2.049l0.448,0.713l-2.646,1.623
					L443.757,320.121z"/>
			</g>
		</g>
	</g>
</g>
</svg>
