<?xml version="1.0" encoding="utf-8"?>
<!-- Generator: Adobe Illustrator 16.0.0, SVG Export Plug-In . SVG Version: 6.00 Build 0)  -->
<!DOCTYPE svg PUBLIC "-//W3C//DTD SVG 1.1//EN" "http://www.w3.org/Graphics/SVG/1.1/DTD/svg11.dtd">
<svg version="1.1" id="Layer_1" xmlns="http://www.w3.org/2000/svg" xmlns:xlink="http://www.w3.org/1999/xlink" x="0px" y="0px"
	 width="900px" height="500px" viewBox="0 0 900 500" enable-background="new 0 0 900 500" xml:space="preserve">
<rect y="-19.5" fill="#FB7157" width="900" height="539"/>
<g>
	<ellipse opacity="0.05" enable-background="new    " cx="450.044" cy="380.359" rx="312.894" ry="24.115"/>
	<g>
		<polygon fill="#FFBA4D" points="550.406,154.082 524.344,154.082 519.468,199.99 555.283,199.99 		"/>
		<polygon opacity="0.1" fill="#FFFFFF" enable-background="new    " points="524.344,154.082 519.468,199.99 537.229,199.99 
			537.229,154.081 		"/>
	</g>
	<g>
		<polygon fill="#63BED5" points="509.964,165.615 490.447,165.615 487.042,199.99 513.369,199.99 		"/>
		<polygon opacity="0.1" fill="#FFFFFF" enable-background="new    " points="490.447,165.615 487.042,199.99 500.205,199.99 
			500.205,165.615 		"/>
	</g>
	<path opacity="0.8" fill="#FFFFFF" enable-background="new    " d="M596.848,118.263h-21.804c-3.14,0-5.685-2.544-5.685-5.683
		c0-3.141,2.545-5.686,5.685-5.686h9.126c3.139,0,5.686-2.546,5.686-5.685c0-3.14-2.547-5.686-5.686-5.686h-55.201
		c-3.139,0-5.685,2.546-5.685,5.686c0,3.139,2.546,5.685,5.685,5.685h27.167c3.141,0,5.686,2.545,5.686,5.686
		c0,3.139-2.545,5.683-5.686,5.683h-18.39c-3.139,0-5.686,2.547-5.686,5.686c0,3.139,2.547,5.685,5.686,5.685h0.594
		c3.139,0,5.686,2.545,5.686,5.686c0,3.139-2.547,5.683-5.686,5.683h-2.787h-10.451c-3.11,0-5.634,2.522-5.634,5.634
		c0,3.112,2.522,5.634,5.634,5.634h34.611c3.111,0,5.633-2.521,5.633-5.634c0-3.111-2.521-5.634-5.633-5.634h0.461
		c-3.141,0-5.686-2.544-5.686-5.683c0-3.141,2.545-5.686,5.686-5.686h36.674c3.14,0,5.686-2.546,5.686-5.685
		C602.533,120.81,599.986,118.263,596.848,118.263z"/>
	<path opacity="0.8" fill="#FFFFFF" enable-background="new    " d="M509.517,152.24H496.49c-3.14,0-5.686-2.547-5.686-5.686
		c0-3.139,2.546-5.685,5.686-5.685h8.149c3.142,0,5.687-2.545,5.687-5.684c0-3.141-2.545-5.685-5.687-5.685h-36.672
		c-3.139,0-5.685,2.544-5.685,5.685c0,3.139,2.546,5.684,5.685,5.684h7.662c3.14,0,5.687,2.546,5.687,5.685
		c0,3.139-2.547,5.686-5.687,5.686h-19.364c-3.14,0-5.685,2.544-5.685,5.685c0,3.139,2.545,5.684,5.685,5.684h53.25
		c3.141,0,5.686-2.545,5.686-5.684C515.201,154.784,512.656,152.24,509.517,152.24z"/>
	<g>
		
			<rect x="623.968" y="268.216" transform="matrix(0.7071 0.7071 -0.7071 0.7071 390.3088 -356.9315)" fill="#707070" width="4.082" height="48.926"/>
		
			<rect x="624.302" y="267.482" transform="matrix(0.7073 0.7069 -0.7069 0.7073 389.3701 -356.5823)" opacity="0.1" fill="#FFFFFF" enable-background="new    " width="2.043" height="48.926"/>
		<circle fill="#F1321F" cx="645.314" cy="273.365" r="5.403"/>
		<g opacity="0.1">
			<path d="M650.576,272.189c-0.215,0.97-0.688,1.893-1.441,2.646c-2.11,2.112-5.531,2.112-7.642,0.001
				c-0.753-0.753-1.227-1.677-1.44-2.645c-0.386,1.744,0.086,3.639,1.441,4.994c2.108,2.11,5.531,2.11,7.641,0
				C650.492,275.83,650.965,273.934,650.576,272.189z"/>
		</g>
	</g>
	<g>
		<polygon fill="#63BED5" points="581.352,374.812 642.385,374.812 642.385,296.898 613.814,265.646 581.352,265.646 		"/>
		<g>
			<g>
				<path fill="#595959" d="M610.623,368.608c0,0.688,0.557,1.244,1.246,1.244l0,0c0.688,0,1.244-0.558,1.244-1.244v-15.274
					c0-0.688-0.558-1.247-1.244-1.247l0,0c-0.689,0-1.246,0.56-1.246,1.247V368.608z"/>
				<g opacity="0.2">
					<path d="M611.869,352.087c0.688,0,1.244,0.56,1.244,1.247v2.441c0-0.688-0.558-1.244-1.244-1.244
						c-0.689,0-1.246,0.558-1.246,1.244v-2.441C610.623,352.646,611.18,352.087,611.869,352.087z"/>
				</g>
				<g opacity="0.2">
					<path d="M611.869,369.854c0.688,0,1.244-0.558,1.244-1.244v-2.442c0,0.688-0.558,1.246-1.244,1.246
						c-0.689,0-1.246-0.56-1.246-1.246v2.442C610.623,369.296,611.18,369.854,611.869,369.854z"/>
				</g>
			</g>
			<g>
				<path fill="#595959" d="M598.047,368.608c0,0.688,0.557,1.244,1.244,1.244l0,0c0.689,0,1.246-0.558,1.246-1.244v-15.274
					c0-0.688-0.557-1.247-1.246-1.247l0,0c-0.688,0-1.244,0.56-1.244,1.247V368.608z"/>
				<g opacity="0.2">
					<path d="M599.291,352.087c0.689,0,1.246,0.56,1.246,1.247v2.441c0-0.688-0.557-1.244-1.246-1.244
						c-0.688,0-1.244,0.558-1.244,1.244v-2.441C598.047,352.646,598.604,352.087,599.291,352.087z"/>
				</g>
				<g opacity="0.2">
					<path d="M599.291,369.854c0.689,0,1.246-0.558,1.246-1.244v-2.442c0,0.688-0.557,1.246-1.246,1.246
						c-0.688,0-1.244-0.56-1.244-1.246v2.442C598.047,369.296,598.604,369.854,599.291,369.854z"/>
				</g>
			</g>
			<g>
				<path fill="#595959" d="M591.758,368.608c0,0.688,0.558,1.244,1.245,1.244l0,0c0.688,0,1.245-0.558,1.245-1.244v-15.274
					c0-0.688-0.557-1.247-1.245-1.247l0,0c-0.688,0-1.245,0.56-1.245,1.247V368.608z"/>
				<g opacity="0.2">
					<path d="M593.003,352.087c0.688,0,1.245,0.56,1.245,1.247v2.441c0-0.688-0.557-1.244-1.245-1.244
						c-0.688,0-1.245,0.558-1.245,1.244v-2.441C591.758,352.646,592.314,352.087,593.003,352.087z"/>
				</g>
				<g opacity="0.2">
					<path d="M593.003,369.854c0.688,0,1.245-0.558,1.245-1.244v-2.442c0,0.688-0.557,1.246-1.245,1.246
						c-0.688,0-1.245-0.56-1.245-1.246v2.442C591.758,369.296,592.314,369.854,593.003,369.854z"/>
				</g>
			</g>
			<g>
				<path fill="#595959" d="M585.469,368.608c0,0.688,0.56,1.244,1.246,1.244l0,0c0.688,0,1.246-0.558,1.246-1.244v-15.274
					c0-0.688-0.559-1.247-1.246-1.247l0,0c-0.688,0-1.246,0.56-1.246,1.247V368.608z"/>
				<g opacity="0.2">
					<path d="M586.715,352.087c0.688,0,1.246,0.56,1.246,1.247v2.441c0-0.688-0.559-1.244-1.246-1.244
						c-0.687,0-1.246,0.558-1.246,1.244v-2.441C585.469,352.646,586.027,352.087,586.715,352.087z"/>
				</g>
				<g opacity="0.2">
					<path d="M586.715,369.854c0.688,0,1.246-0.558,1.246-1.244v-2.442c0,0.688-0.559,1.246-1.246,1.246
						c-0.687,0-1.246-0.56-1.246-1.246v2.442C585.469,369.296,586.027,369.854,586.715,369.854z"/>
				</g>
			</g>
			<g>
				<path fill="#595959" d="M635.776,368.608c0,0.688,0.558,1.244,1.245,1.244l0,0c0.688,0,1.245-0.558,1.245-1.244v-15.274
					c0-0.688-0.559-1.247-1.245-1.247l0,0c-0.688,0-1.245,0.56-1.245,1.247V368.608z"/>
				<g opacity="0.2">
					<path d="M637.021,352.087c0.688,0,1.245,0.56,1.245,1.247v2.441c0-0.688-0.559-1.244-1.245-1.244
						c-0.688,0-1.245,0.558-1.245,1.244v-2.441C635.776,352.646,636.334,352.087,637.021,352.087z"/>
				</g>
				<g opacity="0.2">
					<path d="M637.021,369.854c0.688,0,1.245-0.558,1.245-1.244v-2.442c0,0.688-0.559,1.246-1.245,1.246
						c-0.688,0-1.245-0.56-1.245-1.246v2.442C635.776,369.296,636.334,369.854,637.021,369.854z"/>
				</g>
			</g>
			<g>
				<path fill="#595959" d="M623.199,368.608c0,0.688,0.558,1.244,1.246,1.244l0,0c0.688,0,1.244-0.558,1.244-1.244v-15.274
					c0-0.688-0.558-1.247-1.244-1.247l0,0c-0.688,0-1.246,0.56-1.246,1.247V368.608z"/>
				<g opacity="0.2">
					<path d="M624.445,352.087c0.688,0,1.245,0.56,1.245,1.247v2.441c0-0.688-0.559-1.244-1.245-1.244
						c-0.688,0-1.246,0.558-1.246,1.244v-2.441C623.199,352.646,623.757,352.087,624.445,352.087z"/>
				</g>
				<g opacity="0.2">
					<path d="M624.445,369.854c0.688,0,1.245-0.558,1.245-1.244v-2.442c0,0.688-0.559,1.246-1.245,1.246
						c-0.688,0-1.246-0.56-1.246-1.246v2.442C623.199,369.296,623.757,369.854,624.445,369.854z"/>
				</g>
			</g>
			<g>
				<path fill="#595959" d="M629.488,368.608c0,0.688,0.557,1.244,1.245,1.244l0,0c0.688,0,1.244-0.558,1.244-1.244v-15.274
					c0-0.688-0.558-1.247-1.244-1.247l0,0c-0.688,0-1.245,0.56-1.245,1.247V368.608z"/>
				<g opacity="0.2">
					<path d="M630.733,352.087c0.688,0,1.244,0.56,1.244,1.247v2.441c0-0.688-0.558-1.244-1.244-1.244
						c-0.688,0-1.245,0.558-1.245,1.244v-2.441C629.488,352.646,630.045,352.087,630.733,352.087z"/>
				</g>
				<g opacity="0.2">
					<path d="M630.733,369.854c0.688,0,1.244-0.558,1.244-1.244v-2.442c0,0.688-0.558,1.246-1.244,1.246
						c-0.688,0-1.245-0.56-1.245-1.246v2.442C629.488,369.296,630.045,369.854,630.733,369.854z"/>
				</g>
			</g>
			<g>
				<path fill="#595959" d="M616.911,368.608c0,0.688,0.558,1.244,1.246,1.244l0,0c0.688,0,1.245-0.558,1.245-1.244v-15.274
					c0-0.688-0.559-1.247-1.245-1.247l0,0c-0.688,0-1.246,0.56-1.246,1.247V368.608z"/>
				<g opacity="0.2">
					<path d="M618.157,352.087c0.688,0,1.245,0.56,1.245,1.247v2.441c0-0.688-0.559-1.244-1.245-1.244
						c-0.688,0-1.246,0.558-1.246,1.244v-2.441C616.911,352.646,617.469,352.087,618.157,352.087z"/>
				</g>
				<g opacity="0.2">
					<path d="M618.157,369.854c0.688,0,1.245-0.558,1.245-1.244v-2.442c0,0.688-0.559,1.246-1.245,1.246
						c-0.688,0-1.246-0.56-1.246-1.246v2.442C616.911,369.296,617.469,369.854,618.157,369.854z"/>
				</g>
			</g>
			<g>
				<path fill="#595959" d="M604.335,368.608c0,0.688,0.558,1.244,1.245,1.244l0,0c0.688,0,1.245-0.558,1.245-1.244v-15.274
					c0-0.688-0.559-1.247-1.245-1.247l0,0c-0.688,0-1.245,0.56-1.245,1.247V368.608z"/>
				<g opacity="0.2">
					<path d="M605.58,352.087c0.688,0,1.245,0.56,1.245,1.247v2.441c0-0.688-0.559-1.244-1.245-1.244
						c-0.688,0-1.245,0.558-1.245,1.244v-2.441C604.335,352.646,604.893,352.087,605.58,352.087z"/>
				</g>
				<g opacity="0.2">
					<path d="M605.58,369.854c0.688,0,1.245-0.558,1.245-1.244v-2.442c0,0.688-0.559,1.246-1.245,1.246
						c-0.688,0-1.245-0.56-1.245-1.246v2.442C604.335,369.296,604.893,369.854,605.58,369.854z"/>
				</g>
			</g>
		</g>
	</g>
	<g>
		<g>
			<g>
				<path fill="#707070" d="M687.638,380.42c0,0.762,1.18,1.379,2.636,1.379l0,0c1.455,0,2.635-0.617,2.635-1.379v-49.658
					c0-0.76-1.18-1.378-2.635-1.378l0,0c-1.456,0-2.636,0.618-2.636,1.378V380.42z"/>
				<path opacity="0.1" fill="#FFFFFF" enable-background="new    " d="M690.271,380.42c0,0.762,0.59,1.379,1.317,1.379l0,0
					c0.729,0,1.317-0.617,1.317-1.379v-49.658c0-0.76-0.589-1.378-1.317-1.378l0,0c-0.729,0-1.317,0.618-1.317,1.378V380.42z"/>
				<path fill="#595959" d="M685.967,377.118h8.611c1.188,0,2.153,0.967,2.153,2.16v4.322h-12.919v-4.322
					C683.812,378.085,684.777,377.118,685.967,377.118z"/>
				<path opacity="0.1" fill="#FFFFFF" enable-background="new    " d="M694.578,377.118c1.188,0,2.153,0.967,2.153,2.16v4.322
					h-6.459v-6.482H694.578z"/>
			</g>
			<g>
				<path fill="#707070" d="M608.309,380.42c0,0.762,1.179,1.379,2.636,1.379l0,0c1.456,0,2.635-0.617,2.635-1.379v-49.658
					c0-0.76-1.179-1.378-2.635-1.378l0,0c-1.457,0-2.636,0.618-2.636,1.378V380.42z"/>
				<path opacity="0.1" fill="#FFFFFF" enable-background="new    " d="M610.943,380.42c0,0.762,0.59,1.379,1.316,1.379l0,0
					c0.729,0,1.317-0.617,1.317-1.379v-49.658c0-0.76-0.589-1.378-1.317-1.378l0,0c-0.728,0-1.316,0.618-1.316,1.378V380.42z"/>
				<path fill="#595959" d="M606.637,377.118h8.612c1.188,0,2.153,0.967,2.153,2.16v4.322h-12.918v-4.322
					C604.484,378.085,605.448,377.118,606.637,377.118z"/>
				<path opacity="0.1" fill="#FFFFFF" enable-background="new    " d="M615.249,377.118c1.188,0,2.153,0.967,2.153,2.16v4.322
					h-6.459v-6.482H615.249z"/>
			</g>
			<g>
				<path fill="#707070" d="M528.979,380.42c0,0.762,1.18,1.379,2.636,1.379l0,0c1.456,0,2.635-0.617,2.635-1.379v-49.658
					c0-0.76-1.179-1.378-2.635-1.378l0,0c-1.456,0-2.636,0.618-2.636,1.378V380.42z"/>
				<path opacity="0.1" fill="#FFFFFF" enable-background="new    " d="M531.614,380.42c0,0.762,0.59,1.379,1.316,1.379l0,0
					c0.729,0,1.317-0.617,1.317-1.379v-49.658c0-0.76-0.589-1.378-1.317-1.378l0,0c-0.728,0-1.316,0.618-1.316,1.378V380.42z"/>
				<path fill="#595959" d="M527.309,377.118h8.611c1.189,0,2.152,0.967,2.152,2.16v4.322h-12.917v-4.322
					C525.155,378.085,526.119,377.118,527.309,377.118z"/>
				<path opacity="0.1" fill="#FFFFFF" enable-background="new    " d="M535.92,377.118c1.189,0,2.152,0.967,2.152,2.16v4.322
					h-6.458v-6.482H535.92z"/>
			</g>
			<g>
				<path fill="#707070" d="M449.65,380.42c0,0.762,1.179,1.379,2.635,1.379l0,0c1.456,0,2.635-0.617,2.635-1.379v-49.658
					c0-0.76-1.179-1.378-2.635-1.378l0,0c-1.456,0-2.635,0.618-2.635,1.378V380.42z"/>
				<path opacity="0.1" fill="#FFFFFF" enable-background="new    " d="M452.285,380.42c0,0.762,0.59,1.379,1.316,1.379l0,0
					c0.729,0,1.317-0.617,1.317-1.379v-49.658c0-0.76-0.589-1.378-1.317-1.378l0,0c-0.728,0-1.316,0.618-1.316,1.378V380.42z"/>
				<path fill="#595959" d="M447.979,377.118h8.612c1.188,0,2.152,0.967,2.152,2.16v4.322h-12.918v-4.322
					C445.826,378.085,446.79,377.118,447.979,377.118z"/>
				<path opacity="0.1" fill="#FFFFFF" enable-background="new    " d="M456.592,377.118c1.188,0,2.152,0.967,2.152,2.16v4.322
					h-6.459v-6.482H456.592z"/>
			</g>
		</g>
		<g>
			<g>
				<rect x="552.824" y="316.318" fill="#CECECE" width="37.018" height="2.847"/>
				<rect x="612.323" y="346.223" fill="#CECECE" width="37.021" height="2.85"/>
				<rect x="652.004" y="346.223" fill="#CECECE" width="37.021" height="2.85"/>
				<rect x="513.141" y="316.318" fill="#CECECE" width="37.023" height="2.847"/>
				<path fill="#CECECE" d="M710.988,346.223c7.44,0,13.475-6.059,13.475-13.527c0-7.472-6.033-13.529-13.475-13.529h0.555v-2.819
					c8.735,0.297,15.757,7.507,15.757,16.35c0,9.028-7.316,16.377-16.312,16.377h-19.306v-2.85L710.988,346.223L710.988,346.223z"/>
				<rect x="473.459" y="316.318" fill="#CECECE" width="37.021" height="2.847"/>
				<rect x="632.184" y="316.318" fill="#CECECE" width="37.021" height="2.847"/>
				<rect x="671.863" y="316.318" fill="#CECECE" width="37.021" height="2.847"/>
				<path fill="#CECECE" d="M431.12,316.342v2.823h0.451c-7.441,0-13.475,6.059-13.475,13.529c0,7.47,6.033,13.527,13.475,13.527
					h19.369v2.85h-19.369c-8.994,0-16.312-7.349-16.312-16.377C415.259,323.817,422.335,316.584,431.12,316.342z"/>
				<rect x="453.6" y="346.223" fill="#CECECE" width="37.021" height="2.85"/>
				<rect x="592.502" y="316.318" fill="#CECECE" width="37.021" height="2.847"/>
				<rect x="493.28" y="346.223" fill="#CECECE" width="37.021" height="2.85"/>
				<rect x="433.779" y="316.318" fill="#CECECE" width="37.021" height="2.847"/>
				<rect x="572.645" y="346.223" fill="#CECECE" width="37.021" height="2.85"/>
				<rect x="532.963" y="346.223" fill="#CECECE" width="37.021" height="2.85"/>
			</g>
			<path fill="#595959" d="M470.801,319.165h2.658h37.021h2.659h37.023h2.66h37.018h2.66h37.021h2.66h37.021h2.659h37.021h2.104
				c7.44,0,13.475,6.059,13.475,13.529c0,7.47-6.033,13.527-13.475,13.527h-19.306h-2.659h-37.021h-2.659h-37.021h-2.659h-37.021
				h-2.66h-37.021h-2.66H493.28h-2.661H453.6h-2.659h-19.369c-7.441,0-13.475-6.059-13.475-13.527
				c0-7.472,6.033-13.529,13.475-13.529h2.208H470.801L470.801,319.165z"/>
			<g opacity="0.1">
				<path d="M710.988,323.527h-2.104h-37.021h-2.659h-37.021h-2.659h-37.021h-2.66h-37.018h-2.66h-37.023h-2.659H473.46h-2.658
					H433.78h-2.208c-6.699,0-12.242,4.918-13.284,11.349c-0.115-0.711-0.19-1.437-0.19-2.182c0-7.472,6.033-13.529,13.475-13.529
					h2.208h37.021h2.658h37.021h2.659h37.023h2.66h37.018h2.66h37.021h2.659h37.021h2.659h37.021h2.104
					c7.44,0,13.475,6.059,13.475,13.529c0,0.745-0.076,1.471-0.191,2.182C723.23,328.445,717.688,323.527,710.988,323.527z"/>
			</g>
			<g>
				<path fill="#FFBA4D" d="M633.432,326.626c3.332,0,6.042,2.723,6.042,6.068c0,3.345-2.71,6.065-6.042,6.065
					c-3.333,0-6.045-2.722-6.045-6.065C627.387,329.349,630.099,326.626,633.432,326.626"/>
			</g>
			<g>
				<path fill="#FFBA4D" d="M481.191,326.626c3.333,0,6.044,2.723,6.044,6.068c0,3.345-2.711,6.065-6.044,6.065
					c-3.332,0-6.043-2.722-6.043-6.065C475.148,329.349,477.859,326.626,481.191,326.626"/>
			</g>
			<path fill="#FFBA4D" d="M557.312,326.626c3.331,0,6.043,2.723,6.043,6.068c0,3.345-2.712,6.065-6.043,6.065
				s-6.041-2.722-6.041-6.065C551.271,329.349,553.981,326.626,557.312,326.626"/>
			<g>
				<path fill="#FFBA4D" d="M709.547,326.626c3.332,0,6.043,2.723,6.043,6.068c0,3.345-2.711,6.065-6.043,6.065
					s-6.041-2.722-6.041-6.065C703.506,329.349,706.215,326.626,709.547,326.626"/>
			</g>
			<path opacity="0.3" fill="#FFFFFF" enable-background="new    " d="M709.548,326.626v12.135c3.332,0,6.042-2.722,6.042-6.065
				C715.59,329.349,712.88,326.626,709.548,326.626z"/>
			<path opacity="0.3" fill="#FFFFFF" enable-background="new    " d="M633.432,326.626v12.135c3.332,0,6.042-2.722,6.042-6.065
				C639.474,329.349,636.764,326.626,633.432,326.626z"/>
			<path opacity="0.3" fill="#FFFFFF" enable-background="new    " d="M557.312,326.626v12.135c3.331,0,6.043-2.722,6.043-6.065
				C563.355,329.349,560.645,326.626,557.312,326.626z"/>
			<path opacity="0.3" fill="#FFFFFF" enable-background="new    " d="M481.193,326.626v12.135c3.332,0,6.042-2.722,6.042-6.065
				C487.235,329.349,484.525,326.626,481.193,326.626z"/>
		</g>
	</g>
	<g>
		<rect x="311.06" y="240.172" fill="#595959" width="9.962" height="131.365"/>
		<rect x="311.06" y="240.172" opacity="0.1" enable-background="new    " width="4.981" height="131.365"/>
		<path fill="#FFBA4D" d="M306.63,292.896h-41.799c-2.445,0-4.428,1.981-4.428,4.428v77.488h50.656v-77.488v-4.428H306.63
			L306.63,292.896z"/>
		<path fill="#FFBA4D" d="M306.667,292.896h-41.8c-2.445,0-4.428-1.982-4.428-4.43v-50.556h50.656v50.556v4.43H306.667z"/>
		<path opacity="0.1" fill="#FFFFFF" enable-background="new    " d="M306.674,292.896h-41.8c-2.445,0-4.428,1.981-4.428,4.428
			v1.843h50.655v-1.843v-4.428H306.674z"/>
		<path opacity="0.1" fill="#595959" enable-background="new    " d="M306.674,292.952h-41.8c-2.445,0-4.428-1.981-4.428-4.429
			v-1.842h50.655v1.842v4.429H306.674z"/>
		<g>
			<g>
				<circle fill="#595959" cx="306.932" cy="242.506" r="2.052"/>
				<g>
					<path fill="#CECECE" d="M306.067,243.371c0.112,0.112,0.3,0.112,0.412,0l1.315-1.317c0.113-0.112,0.113-0.298,0-0.412l0,0
						c-0.113-0.113-0.298-0.113-0.413,0l-1.315,1.318C305.953,243.073,305.953,243.256,306.067,243.371L306.067,243.371z"/>
					<path fill="#CECECE" d="M307.794,243.371c0.113-0.115,0.113-0.298,0-0.411l-1.315-1.318c-0.112-0.113-0.3-0.113-0.412,0l0,0
						c-0.114,0.114-0.114,0.3,0,0.412l1.315,1.317C307.497,243.483,307.682,243.483,307.794,243.371L307.794,243.371z"/>
				</g>
			</g>
			<g>
				<circle fill="#595959" cx="265.8" cy="242.506" r="2.053"/>
				<g>
					<path fill="#CECECE" d="M264.935,243.371c0.113,0.112,0.299,0.112,0.413,0l1.315-1.317c0.113-0.112,0.113-0.298,0-0.412l0,0
						c-0.113-0.113-0.298-0.113-0.412,0l-1.316,1.318C264.821,243.073,264.821,243.256,264.935,243.371L264.935,243.371z"/>
					<path fill="#CECECE" d="M266.663,243.371c0.113-0.115,0.113-0.298,0-0.411l-1.315-1.318c-0.113-0.113-0.3-0.113-0.413,0l0,0
						c-0.113,0.114-0.113,0.3,0,0.412l1.316,1.317C266.365,243.483,266.55,243.483,266.663,243.371L266.663,243.371z"/>
				</g>
			</g>
		</g>
		<g>
			<g>
				<circle fill="#595959" cx="306.932" cy="370.129" r="2.052"/>
				<g>
					<path fill="#CECECE" d="M306.067,370.993c0.112,0.113,0.3,0.113,0.412,0l1.315-1.316c0.113-0.112,0.113-0.298,0-0.412l0,0
						c-0.113-0.112-0.298-0.112-0.413,0l-1.315,1.316C305.953,370.696,305.953,370.879,306.067,370.993L306.067,370.993z"/>
					<path fill="#CECECE" d="M307.794,370.993c0.113-0.114,0.113-0.297,0-0.412l-1.315-1.316c-0.112-0.112-0.3-0.112-0.412,0l0,0
						c-0.114,0.114-0.114,0.3,0,0.412l1.315,1.316C307.497,371.106,307.682,371.106,307.794,370.993L307.794,370.993z"/>
				</g>
			</g>
			<g>
				<circle fill="#595959" cx="265.8" cy="370.129" r="2.053"/>
				<g>
					<path fill="#CECECE" d="M264.935,370.993c0.113,0.113,0.299,0.113,0.413,0l1.315-1.316c0.113-0.112,0.113-0.298,0-0.412l0,0
						c-0.113-0.112-0.298-0.112-0.412,0l-1.316,1.316C264.821,370.696,264.821,370.879,264.935,370.993L264.935,370.993z"/>
					<path fill="#CECECE" d="M266.663,370.993c0.113-0.114,0.113-0.297,0-0.412l-1.315-1.316c-0.113-0.112-0.3-0.112-0.413,0l0,0
						c-0.113,0.114-0.113,0.3,0,0.412l1.316,1.316C266.365,371.106,266.55,371.106,266.663,370.993L266.663,370.993z"/>
				</g>
			</g>
		</g>
		<rect x="266.05" y="333.837" fill="#EFA943" width="38.861" height="30.312"/>
		<g>
			<rect x="269.444" y="336.941" fill="#686868" width="32.074" height="24.102"/>
			<rect x="269.444" y="338.238" fill="#595959" width="32.074" height="1.354"/>
			<rect x="269.444" y="341.582" fill="#595959" width="32.074" height="1.352"/>
			<rect x="269.444" y="344.924" fill="#595959" width="32.074" height="1.354"/>
			<rect x="269.444" y="348.267" fill="#595959" width="32.074" height="1.354"/>
			<rect x="269.444" y="351.609" fill="#595959" width="32.074" height="1.354"/>
			<rect x="269.444" y="358.295" fill="#595959" width="32.074" height="1.354"/>
			<rect x="298.175" y="336.941" fill="#595959" width="1.353" height="24.102"/>
			<rect x="294.833" y="336.941" fill="#595959" width="1.353" height="24.102"/>
			<rect x="291.49" y="336.941" fill="#595959" width="1.353" height="24.102"/>
			<rect x="288.147" y="336.941" fill="#595959" width="1.353" height="24.102"/>
			<rect x="284.805" y="336.941" fill="#595959" width="1.353" height="24.102"/>
			<rect x="281.462" y="336.941" fill="#595959" width="1.353" height="24.102"/>
			<rect x="278.12" y="336.941" fill="#595959" width="1.353" height="24.102"/>
			<rect x="274.776" y="336.941" fill="#595959" width="1.353" height="24.102"/>
			<rect x="271.434" y="336.941" fill="#595959" width="1.353" height="24.102"/>
			<rect x="269.444" y="354.952" fill="#595959" width="32.074" height="1.353"/>
		</g>
	</g>
	<g>
		<g>
			<g>
				<path fill="#707070" d="M208.138,380.421c0,0.762-1.179,1.378-2.635,1.378l0,0c-1.456,0-2.635-0.616-2.635-1.378v-49.659
					c0-0.76,1.179-1.378,2.635-1.378l0,0c1.456,0,2.635,0.618,2.635,1.378V380.421z"/>
				<path opacity="0.1" fill="#FFFFFF" enable-background="new    " d="M205.503,380.421c0,0.762-0.589,1.378-1.317,1.378l0,0
					c-0.729,0-1.317-0.616-1.317-1.378v-49.659c0-0.76,0.589-1.378,1.317-1.378l0,0c0.728,0,1.317,0.618,1.317,1.378V380.421z"/>
				<path fill="#595959" d="M209.809,377.117h-8.612c-1.189,0-2.152,0.968-2.152,2.161v4.322h12.917v-4.322
					C211.962,378.085,210.998,377.117,209.809,377.117z"/>
				<path opacity="0.1" fill="#FFFFFF" enable-background="new    " d="M201.197,377.117c-1.189,0-2.152,0.968-2.152,2.161v4.322
					h6.458v-6.483H201.197z"/>
			</g>
			<g>
				<path fill="#707070" d="M287.467,380.421c0,0.762-1.178,1.378-2.634,1.378l0,0c-1.457,0-2.635-0.616-2.635-1.378v-49.659
					c0-0.76,1.179-1.378,2.635-1.378l0,0c1.456,0,2.634,0.618,2.634,1.378V380.421z"/>
				<path opacity="0.1" fill="#FFFFFF" enable-background="new    " d="M284.833,380.421c0,0.762-0.59,1.378-1.317,1.378l0,0
					c-0.729,0-1.318-0.616-1.318-1.378v-49.659c0-0.76,0.589-1.378,1.318-1.378l0,0c0.728,0,1.317,0.618,1.317,1.378V380.421z"/>
				<path fill="#595959" d="M289.138,377.117h-8.612c-1.189,0-2.153,0.968-2.153,2.161v4.322h12.918v-4.322
					C291.291,378.085,290.327,377.117,289.138,377.117z"/>
				<path opacity="0.1" fill="#FFFFFF" enable-background="new    " d="M280.526,377.117c-1.189,0-2.153,0.968-2.153,2.161v4.322
					h6.459v-6.483H280.526z"/>
			</g>
			<g>
				<path fill="#707070" d="M366.796,380.421c0,0.762-1.179,1.378-2.634,1.378l0,0c-1.457,0-2.635-0.616-2.635-1.378v-49.659
					c0-0.76,1.179-1.378,2.635-1.378l0,0c1.456,0,2.634,0.618,2.634,1.378V380.421z"/>
				<path opacity="0.1" fill="#FFFFFF" enable-background="new    " d="M364.162,380.421c0,0.762-0.59,1.378-1.318,1.378l0,0
					c-0.729,0-1.317-0.616-1.317-1.378v-49.659c0-0.76,0.589-1.378,1.317-1.378l0,0c0.728,0,1.318,0.618,1.318,1.378V380.421z"/>
				<path fill="#595959" d="M368.467,377.117h-8.612c-1.189,0-2.153,0.968-2.153,2.161v4.322h12.917v-4.322
					C370.62,378.085,369.656,377.117,368.467,377.117z"/>
				<path opacity="0.1" fill="#FFFFFF" enable-background="new    " d="M359.855,377.117c-1.189,0-2.153,0.968-2.153,2.161v4.322
					h6.459v-6.483H359.855z"/>
			</g>
			<g>
				<path fill="#707070" d="M446.125,380.421c0,0.762-1.179,1.378-2.635,1.378l0,0c-1.456,0-2.635-0.616-2.635-1.378v-49.659
					c0-0.76,1.179-1.378,2.635-1.378l0,0c1.456,0,2.635,0.618,2.635,1.378V380.421z"/>
				<path opacity="0.1" fill="#FFFFFF" enable-background="new    " d="M443.49,380.421c0,0.762-0.589,1.378-1.317,1.378l0,0
					c-0.729,0-1.316-0.616-1.316-1.378v-49.659c0-0.76,0.589-1.378,1.316-1.378l0,0c0.729,0,1.317,0.618,1.317,1.378V380.421z"/>
				<path fill="#595959" d="M447.796,377.117h-8.612c-1.188,0-2.151,0.968-2.151,2.161v4.322h12.917v-4.322
					C449.949,378.085,448.985,377.117,447.796,377.117z"/>
				<path opacity="0.1" fill="#FFFFFF" enable-background="new    " d="M439.184,377.117c-1.188,0-2.151,0.968-2.151,2.161v4.322
					h6.458v-6.483H439.184z"/>
			</g>
		</g>
		<g>
			<g>
				<rect x="305.934" y="316.318" fill="#CECECE" width="37.019" height="2.847"/>
				<rect x="246.431" y="346.223" fill="#CECECE" width="37.021" height="2.849"/>
				<rect x="206.751" y="346.223" fill="#CECECE" width="37.021" height="2.849"/>
				<rect x="345.612" y="316.318" fill="#CECECE" width="37.024" height="2.847"/>
				<path fill="#CECECE" d="M184.787,346.223c-7.441,0-13.475-6.058-13.475-13.527c0-7.471,6.033-13.529,13.475-13.529h-0.555
					v-2.818c-8.735,0.295-15.756,7.506-15.756,16.349c0,9.028,7.317,16.376,16.312,16.376h19.304v-2.849L184.787,346.223
					L184.787,346.223z"/>
				<rect x="385.295" y="316.318" fill="#CECECE" width="37.021" height="2.847"/>
				<rect x="226.571" y="316.318" fill="#CECECE" width="37.021" height="2.847"/>
				<rect x="186.892" y="316.318" fill="#CECECE" width="37.021" height="2.847"/>
				<path fill="#CECECE" d="M464.656,316.341v2.824h-0.451c7.441,0,13.474,6.059,13.474,13.529c0,7.47-6.032,13.527-13.474,13.527
					h-19.37v2.849h19.37c8.994,0,16.311-7.348,16.311-16.376C480.516,323.818,473.441,316.583,464.656,316.341z"/>
				<rect x="405.156" y="346.223" fill="#CECECE" width="37.02" height="2.849"/>
				<rect x="266.253" y="316.318" fill="#CECECE" width="37.021" height="2.847"/>
				<rect x="365.473" y="346.223" fill="#CECECE" width="37.022" height="2.849"/>
				<rect x="424.976" y="316.318" fill="#CECECE" width="37.021" height="2.847"/>
				<rect x="286.112" y="346.223" fill="#CECECE" width="37.02" height="2.849"/>
				<rect x="325.791" y="346.223" fill="#CECECE" width="37.022" height="2.849"/>
			</g>
			<path fill="#595959" d="M424.976,319.165h-2.658h-37.021h-2.659h-37.024h-2.66h-37.019h-2.66h-37.021h-2.661h-37.021h-2.659
				h-37.021h-2.104c-7.441,0-13.475,6.059-13.475,13.529c0,7.47,6.033,13.527,13.475,13.527h19.304h2.66h37.021h2.659h37.021h2.66
				h37.02h2.659h37.022h2.66h37.022h2.661h37.02h2.659h19.37c7.441,0,13.474-6.058,13.474-13.527
				c0-7.471-6.032-13.529-13.474-13.529h-2.208H424.976L424.976,319.165z"/>
			<g opacity="0.1">
				<path d="M184.787,323.528h2.104h37.021h2.659h37.021h2.661h37.021h2.66h37.019h2.66h37.024h2.659h37.021h2.658h37.021h2.208
					c6.699,0,12.242,4.916,13.283,11.348c0.115-0.712,0.189-1.437,0.189-2.182c0-7.472-6.031-13.529-13.474-13.529h-2.208h-37.021
					h-2.658h-37.021h-2.659h-37.024h-2.66h-37.019h-2.66h-37.021h-2.661H226.57h-2.659H186.89h-2.104
					c-7.441,0-13.475,6.059-13.475,13.529c0,0.745,0.076,1.47,0.191,2.182C172.545,328.444,178.087,323.528,184.787,323.528z"/>
			</g>
			<g>
				<path fill="#63BED5" d="M262.344,326.626c3.333,0,6.045,2.723,6.045,6.068c0,3.345-2.711,6.065-6.045,6.065
					c-3.332,0-6.042-2.721-6.042-6.065C256.302,329.349,259.012,326.626,262.344,326.626"/>
			</g>
			<g>
				<path fill="#63BED5" d="M414.583,326.626c3.332,0,6.043,2.723,6.043,6.068c0,3.345-2.711,6.065-6.043,6.065
					s-6.043-2.721-6.043-6.065C408.54,329.349,411.251,326.626,414.583,326.626"/>
			</g>
			<path fill="#63BED5" d="M338.462,326.626c3.332,0,6.043,2.723,6.043,6.068c0,3.345-2.711,6.065-6.043,6.065
				s-6.042-2.721-6.042-6.065C332.42,329.349,335.13,326.626,338.462,326.626"/>
			<g>
				<path fill="#63BED5" d="M186.228,326.626c3.332,0,6.042,2.723,6.042,6.068c0,3.345-2.71,6.065-6.042,6.065
					s-6.043-2.721-6.043-6.065C180.185,329.349,182.896,326.626,186.228,326.626"/>
			</g>
			<path opacity="0.3" fill="#FFFFFF" enable-background="new    " d="M186.228,326.626v12.135c-3.332,0-6.042-2.721-6.042-6.065
				C180.186,329.35,182.896,326.626,186.228,326.626z"/>
			<path opacity="0.3" fill="#FFFFFF" enable-background="new    " d="M262.344,326.626v12.135c-3.332,0-6.042-2.721-6.042-6.065
				C256.302,329.35,259.012,326.626,262.344,326.626z"/>
			<path opacity="0.3" fill="#FFFFFF" enable-background="new    " d="M338.463,326.626v12.135c-3.332,0-6.043-2.721-6.043-6.065
				C332.42,329.35,335.131,326.626,338.463,326.626z"/>
			<path opacity="0.3" fill="#FFFFFF" enable-background="new    " d="M414.583,326.626v12.135c-3.332,0-6.043-2.721-6.043-6.065
				C408.54,329.35,411.251,326.626,414.583,326.626z"/>
		</g>
	</g>
	<g>
		<path fill="#CECECE" d="M585.035,374.052c0,5.274-4.277,9.55-9.551,9.55H330.574c-5.275,0-9.552-4.274-9.552-9.55V209.546
			c0-5.279,4.277-9.556,9.552-9.556h244.911c5.272,0,9.551,4.276,9.551,9.556V374.052z"/>
		<g>
			<path fill="#FFFFFF" d="M455.171,270.814c3.341-4.4,7.98-4.42,7.98-4.42s0.688,4.137-2.628,8.121
				c-3.539,4.254-7.563,3.557-7.563,3.557S452.203,274.729,455.171,270.814z"/>
			<path fill="#FFFFFF" d="M453.384,280.971c1.718,0,4.904-2.361,9.054-2.361c7.141,0,9.949,5.084,9.949,5.084
				s-5.494,2.809-5.494,9.625c0,7.688,6.847,10.338,6.847,10.338s-4.785,13.468-11.249,13.468c-2.967,0-5.276-1.999-8.401-1.999
				c-3.188,0-6.351,2.074-8.411,2.074c-5.899,0-13.355-12.775-13.355-23.044c0-10.103,6.311-15.402,12.229-15.402
				C448.398,278.752,451.383,280.971,453.384,280.971z"/>
		</g>
	</g>
</g>
</svg>
