<?xml version="1.0" encoding="utf-8"?>
<!-- Generator: Adobe Illustrator 16.0.0, SVG Export Plug-In . SVG Version: 6.00 Build 0)  -->
<!DOCTYPE svg PUBLIC "-//W3C//DTD SVG 1.1//EN" "http://www.w3.org/Graphics/SVG/1.1/DTD/svg11.dtd">
<svg version="1.1" id="Layer_1" xmlns="http://www.w3.org/2000/svg" xmlns:xlink="http://www.w3.org/1999/xlink" x="0px" y="0px"
	 width="900px" height="500px" viewBox="0 0 900 500" enable-background="new 0 0 900 500" xml:space="preserve">
<rect fill="#66D1C9" width="900" height="500.001"/>
<g>
	<ellipse opacity="0.05" cx="380.789" cy="420.749" rx="95.977" ry="8.721"/>
	<g>
		<path fill="#A47E5E" d="M595.188,147.615v17.036c0,1.182,0.963,2.144,2.146,2.144h2.645c1.183,0,2.145-0.962,2.145-2.144v-17.036"
			/>
		<path fill="#07D1BD" d="M617.19,143.292l-5.535-9.588h0.087c0.953,0,1.844-0.513,2.321-1.339c0.478-0.827,0.478-1.856,0-2.682
			l-5.873-10.172c0.834-0.03,1.604-0.489,2.023-1.216c0.435-0.75,0.435-1.684,0-2.433l-9.45-16.367
			c-0.434-0.752-1.241-1.22-2.107-1.22c-0.868,0-1.676,0.467-2.106,1.218l-9.452,16.369c-0.433,0.75-0.433,1.68,0,2.432
			c0.42,0.727,1.189,1.186,2.023,1.216l-5.873,10.171c-0.479,0.827-0.479,1.854,0,2.682c0.477,0.828,1.367,1.341,2.322,1.341h0.087
			l-5.534,9.587c-0.516,0.889-0.516,1.996,0,2.884c0.513,0.888,1.469,1.441,2.496,1.441h10.854h3.574h3.218h3.575h10.854
			c1.025,0,1.983-0.553,2.496-1.439C617.704,145.286,617.704,144.179,617.19,143.292z"/>
		<path fill="#00C1B3" d="M614.063,129.682l-5.873-10.172h-19.069l-5.873,10.171c-0.479,0.827-0.479,1.854,0,2.682
			c0.477,0.828,1.367,1.341,2.322,1.341h0.087h25.998h0.087c0.953,0,1.844-0.513,2.321-1.339
			C614.541,131.537,614.541,130.508,614.063,129.682z"/>
		<path fill="#04A8A8" d="M585.57,133.704h0.087l-5.534,9.587c-0.516,0.889-0.516,1.996,0,2.884
			c0.513,0.888,1.469,1.441,2.496,1.441h10.854h3.574h3.218h3.575h10.854c1.025,0,1.983-0.553,2.496-1.439
			c0.514-0.89,0.514-1.997,0-2.884l-5.535-9.588h0.087"/>
	</g>
	
		<line fill="none" stroke="#F7F7F7" stroke-width="0.5" stroke-miterlimit="10" x1="547.686" y1="114.396" x2="534.987" y2="200.082"/>
	<g>
		<path fill="#FFB64D" d="M556.482,55.09c-12.727-1.889-24.777,8.278-26.922,22.713c-2.145,14.433,11.156,29.783,18.957,30.941
			c7.799,1.158,24.986-9.665,27.128-24.099C577.788,70.211,569.208,56.979,556.482,55.09z"/>
		<g opacity="0.05">
			<path opacity="0.5" d="M556.482,55.09c-0.418-0.062-0.83-0.076-1.246-0.112c9.465,4.765,15.199,16.249,13.365,28.597
				c-1.797,12.105-13.78,21.76-22.594,24.395c0.878,0.389,1.722,0.658,2.51,0.775c7.799,1.158,24.986-9.665,27.128-24.099
				C577.788,70.211,569.208,56.979,556.482,55.09z"/>
		</g>
		<path opacity="0.25" fill="#FFFDFD" d="M541.076,98.351c-0.459-0.072-0.903-0.292-1.248-0.661
			c-3.922-4.232-7.345-12.868-6.286-19.99c1.083-7.291,6.374-15.031,12.044-17.625c1.072-0.49,2.338-0.017,2.825,1.051
			c0.489,1.07,0.019,2.334-1.053,2.825c-4.417,2.017-8.724,8.469-9.601,14.375c-0.83,5.598,2.018,13.034,5.198,16.469
			c0.799,0.861,0.747,2.209-0.115,3.009C542.348,98.263,541.694,98.44,541.076,98.351z"/>
		<path fill="#FFB64D" d="M551.253,114.843l-0.664-1.684c-0.243-0.613-0.639-1.612-0.88-2.223l-0.664-1.683
			c0,0-0.103-0.443,0.291-0.435l-0.818-0.075l-0.808-0.165c0.38,0.105,0.152,0.499,0.152,0.499l-1.123,1.418
			c-0.408,0.515-1.077,1.355-1.486,1.872l-1.124,1.418c-0.408,0.515-0.208,0.875,0.446,0.796l1.945-0.229
			c0.327-0.041,0.746-0.021,1.158,0.042c0.414,0.061,0.819,0.163,1.121,0.296l1.794,0.782
			C551.199,115.739,551.494,115.454,551.253,114.843z"/>
		<path opacity="0.05" d="M548.524,108.745l-0.839,5.651c0.414,0.061,0.821,0.163,1.121,0.296l1.796,0.784
			c0.604,0.265,0.899-0.022,0.658-0.632l-0.664-1.684c-0.243-0.613-0.64-1.612-0.879-2.222l-0.665-1.684
			c0,0-0.103-0.442,0.291-0.434L548.524,108.745z"/>
		<path fill="#FFFFFF" d="M549.584,109.509c-0.016,0.109-0.118,0.185-0.228,0.168l-1.914-0.283c-0.109-0.016-0.186-0.119-0.17-0.228
			l0,0c0.017-0.109,0.119-0.186,0.229-0.169l1.914,0.284C549.525,109.298,549.6,109.401,549.584,109.509L549.584,109.509z"/>
		<path fill="#EDEDED" d="M549.643,109.113c-0.017,0.109-0.117,0.185-0.228,0.168l-1.914-0.284c-0.109-0.017-0.186-0.119-0.17-0.227
			l0,0c0.017-0.109,0.119-0.186,0.228-0.169l1.915,0.284C549.584,108.902,549.659,109.004,549.643,109.113L549.643,109.113z"/>
	</g>
	
		<line fill="none" stroke="#F7F7F7" stroke-width="0.5" stroke-miterlimit="10" x1="499.972" y1="84.094" x2="512.924" y2="163.612"/>
	<g>
		<path fill="#FB7157" d="M492.191,36.302c-10.502,1.708-17.444,12.747-15.508,24.661c1.936,11.911,16.273,20.667,22.71,19.62
			c6.437-1.047,17.262-13.893,15.325-25.805C512.779,42.865,502.695,34.594,492.191,36.302z"/>
		<g opacity="0.05">
			<path opacity="0.5" d="M492.191,36.302c-0.344,0.056-0.672,0.148-1.009,0.224c8.655,1.378,16.058,8.986,17.716,19.177
				c1.625,9.991-5.394,20.609-11.677,24.899c0.79,0.086,1.522,0.086,2.172-0.02c6.437-1.047,17.262-13.893,15.325-25.805
				C512.779,42.865,502.695,34.594,492.191,36.302z"/>
		</g>
		<path opacity="0.25" fill="#FFFDFD" d="M490.919,74.262c-0.379,0.058-0.784-0.005-1.149-0.208
			c-4.152-2.349-9.02-8.293-9.975-14.173c-0.979-6.016,1.246-13.445,5.063-16.914c0.721-0.655,1.837-0.6,2.49,0.118
			c0.654,0.721,0.6,1.834-0.12,2.491c-2.974,2.7-4.746,8.866-3.956,13.74c0.754,4.619,4.865,9.763,8.234,11.671
			c0.847,0.478,1.145,1.554,0.666,2.401C491.899,73.874,491.429,74.178,490.919,74.262z"/>
		<path fill="#FB7157" d="M503.081,84.702l-0.946-1.16c-0.345-0.422-0.907-1.11-1.251-1.531l-0.946-1.16c0,0-0.192-0.324,0.12-0.415
			l-0.664,0.146l-0.677,0.073c0.325-0.013,0.245,0.354,0.245,0.354l-0.528,1.399c-0.191,0.508-0.508,1.339-0.702,1.85l-0.528,1.4
			c-0.192,0.508,0.055,0.741,0.552,0.514l1.475-0.668c0.247-0.114,0.583-0.203,0.923-0.259c0.342-0.055,0.687-0.077,0.959-0.047
			l1.61,0.166C503.265,85.421,503.426,85.122,503.081,84.702z"/>
		<path opacity="0.05" d="M499.399,80.582l0.76,4.662c0.341-0.055,0.688-0.077,0.957-0.047l1.612,0.166
			c0.542,0.058,0.703-0.242,0.359-0.662l-0.946-1.162c-0.345-0.421-0.909-1.109-1.251-1.53l-0.946-1.16c0,0-0.192-0.323,0.12-0.414
			L499.399,80.582z"/>
		<path fill="#FFFFFF" d="M500.426,80.917c0.015,0.09-0.045,0.176-0.136,0.192l-1.58,0.256c-0.089,0.015-0.176-0.047-0.19-0.137l0,0
			c-0.015-0.091,0.048-0.176,0.138-0.19l1.579-0.257C500.328,80.766,500.411,80.827,500.426,80.917L500.426,80.917z"/>
		<path fill="#EDEDED" d="M500.373,80.591c0.015,0.09-0.045,0.175-0.137,0.19l-1.579,0.257c-0.09,0.015-0.177-0.047-0.191-0.137l0,0
			c-0.015-0.09,0.048-0.175,0.138-0.19l1.58-0.257C500.274,80.439,500.358,80.5,500.373,80.591L500.373,80.591z"/>
	</g>
	<path opacity="0.3" fill="#0CBC9A" d="M302.026,224.669l11.415-19.768l11.413-19.769c0.55-0.952,1.573-1.542,2.674-1.542
		c0.827,0,1.609,0.332,2.181,0.899c0.19,0.19,0.357,0.406,0.495,0.643l6.591,11.418l11.86-20.539
		c0.598-1.036,1.71-1.678,2.904-1.678c1.196,0,2.308,0.642,2.908,1.678l27.862,48.258c0.598,1.035,0.598,2.32,0,3.355
		c-0.598,1.034-1.71,1.678-2.906,1.678h-24.382h-50.339c-1.099,0-2.125-0.592-2.676-1.545c-0.241-0.416-0.369-0.877-0.399-1.345
		c-0.004-0.066-0.012-0.133-0.012-0.2C301.615,225.68,301.752,225.146,302.026,224.669z"/>
	<g>
		<path fill="#FFFFFF" d="M271.389,143.942c0,2.723,2.209,4.937,4.937,4.937h76.583c2.729,0,4.94-2.213,4.94-4.937l0,0
			c0-2.728-2.212-4.936-4.94-4.936h-76.583C273.598,139.007,271.389,141.215,271.389,143.942L271.389,143.942z"/>
		<circle fill="#FFFFFF" cx="313.626" cy="126.509" r="17.433"/>
		<circle fill="#FFFFFF" cx="291.123" cy="131.502" r="12.936"/>
		<circle fill="#FFFFFF" cx="336.154" cy="134.805" r="9.047"/>
		<circle fill="#FFFFFF" cx="328.292" cy="135.556" r="9.046"/>
	</g>
	<g>
		<polygon fill="#1CD3A7" points="415.672,185.136 414.896,184.031 407.885,174.053 394.968,155.667 382.054,174.053 
			375.042,184.031 374.268,185.136 353.565,214.604 394.968,214.604 436.374,214.604 		"/>
		<polygon fill="#0CBC9A" points="415.672,185.136 414.896,184.031 407.885,174.053 394.968,155.667 394.968,214.604 
			436.374,214.604 		"/>
		<path fill="#FFFFFF" d="M382.056,174.056c1.49,1.589,3.827,2.612,6.456,2.612c2.63,0,4.97-1.024,6.458-2.615v-0.458l0,0v-17.929
			l-12.915,18.387L382.056,174.056z"/>
		<path fill="#B8E0D5" d="M407.882,174.056c-1.49,1.589-3.827,2.612-6.456,2.612c-2.63,0-4.97-1.024-6.458-2.615v-0.458l0,0v-17.929
			l12.915,18.387L407.882,174.056z"/>
	</g>
	<g>
		<path fill="#FB7157" d="M487.698,142.087c39.573,0,71.656,32.083,71.656,71.657h-40.615c0-17.143-13.898-31.038-31.041-31.038
			s-31.042,13.895-31.042,31.038H416.04C416.04,174.17,448.123,142.087,487.698,142.087z"/>
		<path fill="#FFD03B" d="M487.698,152.242c33.965,0,61.503,27.536,61.503,61.502h-30.462c0-17.143-13.898-31.038-31.041-31.038
			s-31.042,13.895-31.042,31.038h-30.461C426.195,179.778,453.73,152.242,487.698,152.242z"/>
		<path fill="#1CD3A7" d="M487.698,162.396c28.357,0,51.347,22.99,51.347,51.348h-20.306c0-17.143-13.898-31.038-31.041-31.038
			s-31.042,13.895-31.042,31.038h-20.309C436.348,185.386,459.339,162.396,487.698,162.396z"/>
		<path fill="#07AEE8" d="M487.698,172.55c22.75,0,41.195,18.445,41.195,41.194h-10.154c0-17.143-13.898-31.038-31.041-31.038
			s-31.042,13.895-31.042,31.038h-10.155C446.501,190.995,464.947,172.55,487.698,172.55z"/>
	</g>
	<g>
		<g>
			<path fill="#FFD8C2" d="M610.769,442.466h-35.522v-21.863h52.93V315.935c18.85,7.055,32.273,25.227,32.273,46.539v30.311v49.682
				h-50.364"/>
			<path fill="#FFD8C2" d="M595.316,424.196c0,10.088-8.179,18.27-18.269,18.27l0,0c-10.089,0-18.269-8.182-18.269-18.27v-45.797
				c0-10.09,8.18-18.27,18.269-18.27l0,0c10.09,0,18.269,8.18,18.269,18.27V424.196z"/>
			<path fill="#FFD8C2" d="M651.219,463.921h-49.255c-5.097,0-9.23-4.131-9.23-9.23v-31.689c0-5.098,4.134-9.23,9.23-9.23h49.255
				c5.099,0,9.23,4.133,9.23,9.23v40.92H651.219"/>
		</g>
		<path opacity="0.05" d="M640.992,403.696c0,11.379-9.225,20.604-20.604,20.604h-82.496c-11.379,0-20.603-9.225-20.603-20.604
			V183.963c0-11.379,9.224-20.604,20.603-20.604h82.496c11.379,0,20.604,9.225,20.604,20.604V403.696z"/>
		<g>
			<path fill="#FFD8C2" d="M517.168,299.651l-10.503,10.318c0,5.707,4.624,10.332,10.33,10.332c5.704,0,10.329-4.625,10.329-10.332
				C527.324,304.323,522.793,299.743,517.168,299.651z"/>
			<path fill="#FCE8DB" d="M517.168,299.651l-10.503,10.318h20.659C527.324,304.323,522.793,299.743,517.168,299.651z"/>
		</g>
		<g>
			<path fill="#FFD8C2" d="M517.168,321.757l-10.503,10.32c0,5.705,4.624,10.33,10.33,10.33c5.704,0,10.329-4.625,10.329-10.33
				C527.324,326.431,522.793,321.851,517.168,321.757z"/>
			<path fill="#FCE8DB" d="M517.168,321.757l-10.503,10.32h20.659C527.324,326.431,522.793,321.851,517.168,321.757z"/>
		</g>
		<g>
			<path fill="#FFD8C2" d="M517.168,343.583l-10.503,10.32c0,5.705,4.624,10.33,10.33,10.33c5.704,0,10.329-4.625,10.329-10.33
				C527.324,348.257,522.793,343.677,517.168,343.583z"/>
			<path fill="#FCE8DB" d="M517.168,343.583l-10.503,10.32h20.659C527.324,348.257,522.793,343.677,517.168,343.583z"/>
		</g>
		<g>
			<path fill="#E0E0E0" d="M519.79,206.136c0,0.322-0.261,0.58-0.581,0.58l-3.105-0.29c-0.32,0-0.58-0.259-0.58-0.58v-8.03
				c0-0.321,0.26-0.581,0.58-0.581l3.105-0.29c0.32,0,0.581,0.26,0.581,0.581V206.136z"/>
			<path fill="#E0E0E0" d="M519.79,239.217c0,0.321-0.261,0.58-0.581,0.58l-3.105-0.29c-0.32,0-0.58-0.26-0.58-0.581v-14.63
				c0-0.32,0.26-0.581,0.58-0.581l3.105-0.291c0.32,0,0.581,0.26,0.581,0.581V239.217z"/>
			<path fill="#B7B7B7" d="M636.263,240.88c0,0.321,0.26,0.581,0.58,0.581l3.105-0.29c0.32,0,0.581-0.26,0.581-0.581v-17.738
				c0-0.321-0.261-0.581-0.581-0.581l-3.105-0.291c-0.32,0-0.58,0.26-0.58,0.582V240.88z"/>
			<path fill="#E0E0E0" d="M519.79,261.319c0,0.32-0.261,0.58-0.581,0.58l-3.105-0.289c-0.32,0-0.58-0.262-0.58-0.582v-14.63
				c0-0.321,0.26-0.582,0.58-0.582l3.105-0.29c0.32,0,0.581,0.261,0.581,0.582V261.319z"/>
			<path fill="#FBFBFB" d="M639.034,400.425c0,11.225-9.098,20.322-20.321,20.322H537.34c-11.225,0-20.321-9.098-20.321-20.322
				V183.682c0-11.224,9.097-20.323,20.321-20.323h81.373c11.224,0,20.321,9.099,20.321,20.323V400.425z"/>
			<path fill="#FB7157" d="M630.741,194.258H525.311c-1.123,0-2.032,0.91-2.032,2.032v190.326c0,1.121,0.909,2.031,2.032,2.031
				h105.431c1.123,0,2.032-0.91,2.032-2.031V196.29C632.773,195.168,631.864,194.258,630.741,194.258z"/>
			<circle fill="#B7B7B7" cx="578.026" cy="173.81" r="1.763"/>
			<circle fill="#B7B7B7" cx="561.952" cy="181.795" r="1.044"/>
			<path fill="#AAAAAA" d="M587.087,181.795c0,0.578-0.469,1.043-1.045,1.043h-16.526c-0.576,0-1.045-0.466-1.045-1.043l0,0
				c0-0.577,0.469-1.044,1.045-1.044h16.526C586.618,180.751,587.087,181.218,587.087,181.795L587.087,181.795z"/>
			<path fill="#C9C9C9" d="M578.027,413.771c-5.746,0-10.422-4.672-10.422-10.418s4.676-10.42,10.422-10.42
				s10.419,4.674,10.419,10.42S583.773,413.771,578.027,413.771z M578.027,394.386c-4.946,0-8.97,4.021-8.97,8.967
				s4.023,8.969,8.97,8.969c4.944,0,8.968-4.023,8.968-8.969S582.972,394.386,578.027,394.386z"/>
		</g>
		<path opacity="0.05" d="M637.549,391.903l-27.392-25.771c-3.879-3.721-9.117-6.002-14.88-6.002h-0.375H572.16h-10.242
			c0,16.389,13.116,31.602,29.295,31.602h8.042v31.994c1.089,21.51,8.315,27.424,18.593,36.516l38.912,3.68L637.549,391.903z"/>
		<g>
			<path fill="#FFFFFF" d="M556.496,287.616c-0.987,1.387-2.652,2.732-5.267,2.732c-4.242,0-7.612-3.445-7.612-8.82
				c0-5.184,3.448-9.018,7.574-9.018c2.266,0,3.931,1.15,4.84,2.092v-8.908h2.964v20.131v4.523h-2.515L556.496,287.616z
				 M556.031,285.663v-8.465c-0.814-1.045-2.382-2.131-4.184-2.131c-3.175,0-5.207,2.789-5.207,6.365
				c0,3.629,2.245,6.291,5.229,6.291C553.475,287.724,555.026,286.874,556.031,285.663z"/>
			<path fill="#FFFFFF" d="M604.646,287.616c-0.985,1.387-2.653,2.732-5.268,2.732c-4.243,0-7.613-3.445-7.613-8.82
				c0-5.184,3.448-9.018,7.574-9.018c2.267,0,3.932,1.15,4.86,2.092v-8.908h2.946v20.131v4.523h-2.518L604.646,287.616z
				 M604.2,285.663v-8.465c-0.831-1.045-2.4-2.131-4.2-2.131c-3.177,0-5.213,2.789-5.213,6.365c0,3.629,2.267,6.291,5.249,6.291
				C601.645,287.724,603.175,286.874,604.2,285.663z"/>
			<g>
				<g>
					<path fill="#FFFFFF" d="M568.157,275.108l7.496,4.693v1.34l-7.477,4.676l-1.047-1.656l6.063-3.701l-6.063-3.719
						L568.157,275.108z"/>
					<path fill="#FFFFFF" d="M585.569,284.161l-1.065,1.656l-7.456-4.676v-1.34l7.495-4.693l1.026,1.633l-6.063,3.719
						L585.569,284.161z"/>
				</g>
			</g>
		</g>
		<path fill="#FFD8C2" d="M640.992,391.903l-27.745-25.771c-3.928-3.721-9.233-6.002-15.071-6.002h-0.38h-23.033h-10.376
			c0,16.389,13.285,27.174,29.673,27.174h8.144v36.422c0,13.885,10.216,40.195,18.741,40.195h39.505L640.992,391.903z"/>
		<path fill="#FCE8DB" d="M567.167,360.13c0,0,1.044,7.662,6.43,7.662h9.601c0,0,7.492-0.51,7.916-7.662H567.167z"/>
	</g>
	<g>
		<path fill="#E6E7E8" d="M489.431,365.308c0,2.465-2.005,4.471-4.475,4.471H275.263c-2.469,0-4.471-2.006-4.471-4.471V217.598
			c0-2.465,2.002-4.471,4.471-4.471h209.693c2.47,0,4.475,2.006,4.475,4.471V365.308z"/>
		<rect x="277.484" y="238.081" fill="#FFBA4D" width="205.258" height="125.16"/>
		<g>
			<path fill="#F96C4B" d="M284.445,224.92c0,1.922-1.554,3.481-3.481,3.481c-1.922,0-3.479-1.559-3.479-3.481
				c0-1.921,1.558-3.48,3.479-3.48C282.892,221.44,284.445,222.999,284.445,224.92z"/>
			<circle fill="#FFBD4F" cx="293.56" cy="224.92" r="3.48"/>
			<circle fill="#00C958" cx="306.157" cy="224.92" r="3.482"/>
		</g>
		<rect x="318.063" y="220.449" fill="#FFFFFF" width="144.646" height="8.942"/>
		<g>
			<path fill="#C9C9C9" d="M482.742,221.737c0,0.386-0.312,0.699-0.697,0.699h-10.558c-0.386,0-0.698-0.313-0.698-0.699l0,0
				c0-0.384,0.312-0.697,0.698-0.697h10.558C482.431,221.04,482.742,221.353,482.742,221.737L482.742,221.737z"/>
			<path fill="#C9C9C9" d="M482.742,228.103c0,0.384-0.312,0.698-0.697,0.698h-10.558c-0.386,0-0.698-0.313-0.698-0.698l0,0
				c0-0.387,0.312-0.699,0.698-0.699h10.558C482.431,227.404,482.742,227.716,482.742,228.103L482.742,228.103z"/>
			<path fill="#C9C9C9" d="M482.742,224.919c0,0.385-0.312,0.698-0.697,0.698h-10.558c-0.386,0-0.698-0.312-0.698-0.698l0,0
				c0-0.386,0.312-0.699,0.698-0.699h10.558C482.431,224.221,482.742,224.534,482.742,224.919L482.742,224.919z"/>
		</g>
		<path fill="#FFFFFF" d="M407.926,292.942h-2.132c-0.523-1.744-1.217-3.412-2.065-4.984l1.508-1.508
			c1.057-1.057,1.057-2.771,0-3.828l-7.088-7.088c-1.057-1.057-2.77-1.057-3.827,0l-1.508,1.508
			c-1.573-0.848-3.242-1.543-4.985-2.064v-2.133c0-1.494-1.211-2.705-2.706-2.705H375.1c-1.496,0-2.707,1.211-2.707,2.705v2.133
			c-1.743,0.521-3.41,1.217-4.983,2.064l-1.508-1.508c-1.057-1.057-2.77-1.057-3.828,0l-7.087,7.088
			c-1.057,1.057-1.057,2.77,0,3.826l1.508,1.51c-0.848,1.572-1.542,3.24-2.066,4.984h-2.132c-1.494,0-2.706,1.211-2.706,2.705
			v10.023c0,1.494,1.212,2.707,2.706,2.707h2.132c0.523,1.742,1.218,3.41,2.066,4.984l-1.508,1.508c-1.057,1.057-1.057,2.77,0,3.828
			l7.087,7.088c1.058,1.057,2.771,1.057,3.828,0l1.508-1.51c1.574,0.848,3.241,1.543,4.983,2.066v2.131
			c0,1.494,1.211,2.707,2.707,2.707h10.023c1.495,0,2.706-1.213,2.706-2.707v-2.131c1.743-0.523,3.412-1.219,4.985-2.066l1.508,1.51
			c1.057,1.055,2.77,1.055,3.827,0l7.088-7.088c1.057-1.059,1.057-2.771,0-3.828l-1.508-1.51c0.848-1.572,1.542-3.24,2.065-4.982
			h2.132c1.495,0,2.707-1.213,2.707-2.707v-10.023C410.633,294.153,409.421,292.942,407.926,292.942z M380.112,315.827
			c-8.377,0-15.168-6.791-15.168-15.168s6.791-15.166,15.168-15.166c8.376,0,15.167,6.789,15.167,15.166
			S388.489,315.827,380.112,315.827z"/>
	</g>
	<g opacity="0.8">
		<polygon fill="#FFFFFF" points="427.387,87.435 427.387,84.141 427.387,84.122 427.333,84.149 409.431,87.017 409.431,90.368 		
			"/>
		<path fill="#FFFFFF" d="M427.387,109.606V88.904l-17.956,2.934v16.979c-0.381-0.135-0.786-0.222-1.213-0.222
			c-2.011,0-3.642,1.629-3.642,3.641s1.63,3.641,3.642,3.641s3.641-1.63,3.641-3.641c0-0.311-0.051-0.606-0.124-0.895h0.009V95.02
			l13.331-2.104v14.167c-0.381-0.136-0.786-0.223-1.213-0.223c-2.011,0-3.641,1.63-3.641,3.641s1.63,3.641,3.641,3.641
			c2.011,0,3.641-1.63,3.641-3.641c0-0.31-0.051-0.606-0.124-0.894H427.387z"/>
	</g>
	<path opacity="0.8" fill="#FFFFFF" d="M286.105,286.229h-9.108c-2.194,0-3.975-1.779-3.975-3.975c0-2.193,1.781-3.975,3.975-3.975
		h5.699c2.194,0,3.975-1.779,3.975-3.973c0-2.197-1.78-3.975-3.975-3.975h-31.093c-2.195,0-3.975,1.777-3.975,3.975
		c0,2.193,1.779,3.973,3.975,3.973h3.994c2.194,0,3.975,1.781,3.975,3.975c0,2.195-1.78,3.975-3.975,3.975h-12.176
		c-2.195,0-3.975,1.779-3.975,3.975s1.78,3.973,3.975,3.973h42.684c2.194,0,3.975-1.777,3.975-3.973
		S288.299,286.229,286.105,286.229z"/>
	<path opacity="0.1" fill="#FBFBFB" d="M630.742,194.258H525.312c-1.123,0-2.033,0.91-2.033,2.032v154.49l109.495-154.49
		C632.773,195.168,631.864,194.258,630.742,194.258z"/>
</g>
</svg>
